<?xml version="1.0" encoding="UTF-8"?>
<svg id="Layer_2" data-name="Layer 2" xmlns="http://www.w3.org/2000/svg" viewBox="0 0 159.206 427.43">
  <defs>
    <style>
      .cls-1 {
        fill: #8c0317;
      }

      .cls-2 {
        fill: #535350;
      }

      .cls-3 {
        fill: #d8cdc3;
      }

      .cls-4 {
        fill: #e5e5e5;
      }

      .cls-5 {
        fill: #fff;
      }

      .cls-6 {
        opacity: .35;
      }

      .cls-7 {
        fill: #49000c;
      }

      .cls-8 {
        opacity: .2;
      }
    </style>
  </defs>
  <g id="Layer_13" data-name="Layer 13">
    <g>
      <g class="cls-8">
        <path d="M7.57,235.266c4.136,2.251,7.648,5.763,12.037,9.103.368.659.68,1.352.988,2.075,1.514,3.549,3.326,7.795,5.362,12.567.264.441.52.885.837,1.338,3.642,2.921,4.813,6.433,5.044,11.378.025.485.122.98.173,1.473.964,2.261,1.955,4.582,2.966,6.952.337.79.677,1.586,1.018,2.387,4.976,7.655,20.194,5.313,20.194,14.678,0,2.341-9.365,1.171-10.577,7.864.366.858.732,1.717,1.099,2.577,1.467,3.44,2.941,6.893,4.408,10.333.245.573.489,1.146.733,1.719,1.995,5.602,11.36,7.943,11.36,13.796,0,2.341-3.512,4.682-2.041,8.01.214.538.443,1.074.671,1.609.285.668.568,1.332.85,1.993.282.661.546,1.318.698,1.973-8.372,12.168,2.163,13.339,9.223,21.372.259.521.481,1.037.698,1.545,3.255,7.629,5.825,13.654,7.36,17.252.256.6.53,1.137.895,1.617,3.887,4.329,10.911,7.841,10.911,12.523,0,2.341-5.853,4.682-7.744,7.899-.333.608-.487,1.235-.675,1.855.751,8.419,1.452,16.276,1.452,16.276h1.491s-.478-5.358-1.196-13.403c-.08-.894-.162-1.821-.248-2.777,11.602-8.68,6.919-14.533-1.864-23.145-.155-.606-.259-1.208-.363-1.81-.479-5.368-.962-10.778-1.418-15.894-.057-.641-.116-1.278-.26-1.91-9.076-6.892-10.246-12.745-1.913-21.623.006-.71-.049-1.362-.102-1.952-.21-2.357-.331-3.705-.331-3.705.142,1.144.284,2.288.424,3.431.07.572.14,1.143.167,1.714-8.492,9.389-6.151,14.072,2.559,21.95.125.55.198,1.098.26,1.644.656,5.836,1.267,11.498,1.816,16.875.422,1.11.841,2.209,1.569,3.329,2.864,4.22,8.717,6.562,8.717,10.073,1.171,2.341-4.682,3.512-6.683,7.389-.619.796-.978,1.604-1.501,2.375.562,7.526.842,13.554.746,17.437.311-2.225,1.188-8.195,2.824-16.939.164-.874.37-1.773.634-2.692,5.152-5.229,6.323-9.911,3.271-15.825.163-1.183.433-2.377.712-3.593,1.396-6.077,3.016-12.678,4.883-19.682.088-.604.227-1.211.359-1.822,1.779-4.108,1.779-9.961,4.26-15.165.243-.652.476-1.306.782-1.962.599-1.969,1.215-3.958,1.85-5.965,1.181-1.099,2.181-2.217,3.629-3.31,5.306-2.288,6.476-9.311,3.732-14.344-.272-1.257-.186-2.492-.094-3.731.569-1.561,1.148-3.128,1.739-4.699.591-1.572,1.381-3.112,3.762-4.351,3.191-3.257,11.385-2.086,10.214-7.939-1.171-2.341-2.341-3.512-3.993-6.299-1.299-1.98-.977-3.651-.271-5.251.706-1.6,1.423-3.2,2.153-4.801.268-.588.538-1.177.81-1.765,4.814-5.296,13.008-9.978,9.736-19.318.161-.596.452-1.18.765-1.76,1.561-2.903,3.166-5.792,4.815-8.661,0-.001.001-.002.002-.003l1.469.123c.797.066,1.45-.448,1.459-1.15l-71.99-6.008c.109-.807.222-1.599.34-2.374-.312-5.945-8.506-10.627-7.335-11.797,24.583-17.559,53.848-1.171,80.903-11.175.498-.265.973-.547,1.427-.856.066-.045.129-.095.194-.141.415-.291.815-.601,1.203-.928.088-.074.178-.145.265-.221.411-.36.803-.742,1.179-1.142.088-.094.174-.191.261-.288.371-.413.73-.839,1.062-1.291.009-.012.02-.023.03-.036l4.788-6.554h-2.706s-.002,0-.002,0h-.018s-.001,0-.001,0H17.446s-.001,0-.001,0l-.6,1.569h.003s-1.343,3.527-2.855,7.495c-.233.568-.495,1.144-.876,1.715-3.753,4.828-9.606,5.999-13.118,10.681,2.341,0,4.682,0,7.171-.423,0,0,.109.175.398.513ZM67.568,233.701c-11.379,3.816-23.085-.866-34.791.305,11.706-2.341,23.412-2.341,34.783-2.296,0,0-.007.995.009,1.991ZM81.161,294.796c6.634,4.762-.39,9.444-5.154,12.206-.843.978-1.008,2.529-.831,4.515s.389,4.368.628,7.049c.179,2.01.373,4.188,1.791,6.569,4.346,4.859,5.517,10.712,1.162,14.983-.401,1.287-.542,2.6-.553,3.927-.005.663.022,1.33.065,1.999-9.204,9.704-5.693,15.557,2.057,23.252.053.591.105,1.175.156,1.751.513,5.759.957,10.732,1.272,14.266.079.883.15,1.677.211,2.37-.023.841,1.147,2.012,2.318,3.182-2.341,0-3.512-1.171-3.106-3.669-.177-.692-.353-1.416-.528-2.172-.872-3.778-1.706-8.337-2.484-13.488-.138-.916-.275-1.85-.421-2.802-7.508-8.304-8.679-12.987-2.503-21.833-.013-.512-.055-1.022-.1-1.535-.045-.512-.089-1.027-.133-1.543,1.081-6.805,12.787-4.464,10.446-11.487-1.171-2.341-4.682-5.853-8.687-7.543-3.177-2.383-3.324-4.586-3.422-6.792-.066-1.471-.126-2.944-.182-4.418-.056-1.474-.106-2.949.093-4.393,4.004-6.119,15.71-10.801,4.85-16.9,1.1.84,2.147,1.679,3.056,2.507Z"/>
      </g>
      <g>
        <rect class="cls-3" x="66.467" y="0" width="1.477" height="199.159" transform="translate(134.411 199.159) rotate(-180)"/>
        <g>
          <g>
            <path class="cls-7" d="M7.38,192.166l.723,1.552,9.343,19.997h141.76s-5.397-6.554-5.397-6.554c-3.47-4.206-8.527-6.787-13.971-7.119l-132.459-7.876Z"/>
            <path class="cls-1" d="M8.103,193.718l9.343,19.997c75.974,0,140.445,0,139.034,0l-4.231-5.137c-3.466-4.206-8.527-6.783-13.967-7.119l-130.179-7.74Z"/>
          </g>
          <g>
            <g>
              <path class="cls-5" d="M66.494,36.371L12.962,195.119l62.454-4.922c-12.306-32.303-14.859-129.171-8.922-153.826Z"/>
              <path class="cls-2" d="M11.108,196.125c.652-.052,65.202-5.248,66.166-5.324h0c-.06-.762-.723-1.331-1.485-1.269-8.622.693-54.804,4.41-63.415,5.102-.762.061-1.328.729-1.267,1.491h0Z"/>
            </g>
            <path class="cls-4" d="M60.982,177.342l79.377-6.779c-.152-.23-.305-.459-.457-.689C91.151,96.428,70.598,10.045,68.318,0c3.265,28.888-3.578,176.539-5.861,176.457-.621-.022-1.391.885-1.476.885Z"/>
            <path class="cls-2" d="M61.656,176.469l79.703-6.715c.789-.066,1.488.448,1.563,1.15l-81.846,6.895-.067-.635c-.037-.351.253-.662.647-.695Z"/>
          </g>
        </g>
      </g>
      <path class="cls-6" d="M16.71,212.146l.735,1.569h139.034c.017,0,.021,0,.021,0h2.705s-5.397-6.554-5.397-6.554c-2.131-2.582-4.857-4.55-7.906-5.763-.842.285-1.824.595-2.973.919-12.618,3.551-45.003,8.944-126.22,9.828Z"/>
    </g>
  </g>
</svg>