<?xml version="1.0" encoding="UTF-8"?>
<svg id="Layer_2" data-name="Layer 2" xmlns="http://www.w3.org/2000/svg" viewBox="0 0 233.812 197.41">
  <defs>
    <style>
      .cls-1 {
        fill: #fff;
      }

      .cls-1, .cls-2, .cls-3, .cls-4, .cls-5, .cls-6 {
        stroke: #173a42;
        stroke-linecap: round;
        stroke-linejoin: round;
        stroke-width: 2px;
      }

      .cls-2 {
        fill: #d1d8d9;
      }

      .cls-3 {
        fill: #a2b0b3;
      }

      .cls-4 {
        fill: #456168;
      }

      .cls-5 {
        fill: #173a42;
      }

      .cls-6 {
        fill: #74898e;
      }
    </style>
  </defs>
  <g id="Layer_2-2" data-name="Layer 2">
    <g>
      <path class="cls-5" d="M24.49,102.572v-61.366l39.312-6.932v9.781l-28.053,4.947v15.78l23.255-4.101v9.781l-23.255,4.101v26.023l-11.258,1.985Z"/>
      <path class="cls-5" d="M71.368,94.306v-46.417l10.981-1.936v46.417l-10.981,1.936ZM76.813,39.731c-1.908.336-3.431.021-4.568-.947-1.139-.967-1.707-2.344-1.707-4.129,0-1.661.568-3.191,1.707-4.592,1.138-1.4,2.661-2.268,4.568-2.604,1.906-.336,3.444-.022,4.614.939,1.168.963,1.753,2.306,1.753,4.028s-.6,3.29-1.799,4.701c-1.2,1.411-2.722,2.279-4.568,2.604Z"/>
      <path class="cls-5" d="M93.977,90.32v-38.389l-.831-7.882,9.228-1.627.922,5.65c1.6-2.619,3.614-4.758,6.044-6.418,2.43-1.658,5.152-2.753,8.167-3.285,4.675-.824,8.289-.154,10.843,2.01,2.552,2.166,3.83,5.984,3.83,11.459v31.744l-10.981,1.937v-29.345c0-1.906-.17-3.57-.507-4.987-.339-1.417-1.001-2.484-1.984-3.203-.984-.717-2.461-.904-4.43-.557-1.845.326-3.476,1.06-4.891,2.2-1.416,1.142-2.523,2.475-3.322,4.001-.801,1.525-1.2,3.087-1.2,4.687v30.083l-10.889,1.92Z"/>
      <path class="cls-5" d="M161.709,71.641c1.968-.347,3.629-1.024,4.983-2.032,1.353-1.007,2.383-2.188,3.092-3.544.706-1.355,1.061-2.679,1.061-3.971v-23.9c-.678-.187-1.661-.307-2.952-.356-1.293-.048-2.646.052-4.061.301-2.893.51-5.199,1.748-6.921,3.713-1.723,1.964-2.953,4.396-3.691,7.294-.738,2.898-1.107,6.009-1.107,9.331,0,1.908.139,3.712.416,5.417.277,1.704.769,3.203,1.476,4.492.707,1.291,1.692,2.239,2.953,2.847,1.26.609,2.845.745,4.752.408ZM159.31,80.184c-3.507.619-6.414.532-8.721-.261-2.307-.793-4.138-2.131-5.491-4.015-1.354-1.883-2.323-4.126-2.907-6.731-.585-2.603-.877-5.413-.877-8.427,0-5.413.891-10.262,2.677-14.544,1.783-4.283,4.443-7.828,7.981-10.636,3.538-2.807,7.951-4.677,13.243-5.611,1.6-.282,3.922-.461,6.967-.537,3.046-.075,6.197.215,9.459.87v35.712l.922,8.697-9.505,1.676-.646-4.776-.37-.028c-1.231,2.002-2.892,3.802-4.982,5.401-2.092,1.599-4.676,2.669-7.751,3.211Z"/>
      <path class="cls-5" d="M206.463,71.869c-3.137.553-5.598.526-7.382-.082-1.785-.608-3.091-1.624-3.922-3.045s-1.354-3.084-1.568-4.983c-.217-1.9-.323-3.896-.323-5.988V8.677l11.073-1.952v48.908c0,2.893.354,4.875,1.062,5.949.706,1.076,2.014,1.445,3.922,1.108.86-.152,1.783-.453,2.768-.903.984-.451,1.969-.978,2.954-1.583l2.399,6.96c-1.292,1.09-2.954,2.058-4.984,2.908-2.03.85-4.029,1.449-5.998,1.796Z"/>
      <path class="cls-5" d="M17.984,158.158l6.921-1.221c3.937-.694,6.767-1.992,8.49-3.895,1.721-1.903,2.583-4.086,2.583-6.547,0-2.275-.447-3.903-1.338-4.886-.892-.98-2.122-1.548-3.691-1.702-1.569-.153-3.368-.052-5.398.306l-7.567,1.334v16.61ZM6.725,196.41v-61.366l20.763-3.661c3.507-.618,6.783-.765,9.828-.441,3.045.326,5.505,1.382,7.383,3.174,1.875,1.792,2.814,4.657,2.814,8.593,0,3.322-.862,6.228-2.584,8.715-1.723,2.488-3.938,4.556-6.644,6.201,3.814.127,6.813,1.229,8.998,3.304,2.183,2.076,3.276,5.144,3.276,9.204,0,5.969-2.016,10.907-6.044,14.816-4.03,3.911-9.89,6.543-17.58,7.898l-20.21,3.563ZM17.984,185.75l8.767-1.546c3.014-.531,5.382-1.379,7.105-2.544,1.722-1.165,2.953-2.551,3.691-4.158.738-1.606,1.107-3.333,1.107-5.179,0-3.075-1.015-5.266-3.045-6.568-2.03-1.303-4.861-1.634-8.49-.994l-9.136,1.611v19.378Z"/>
      <path class="cls-5" d="M77.78,177.144c1.968-.347,3.629-1.024,4.983-2.032,1.353-1.007,2.384-2.188,3.091-3.544.707-1.355,1.062-2.679,1.062-3.971v-23.9c-.678-.187-1.661-.307-2.953-.356-1.292-.048-2.646.052-4.061.301-2.892.51-5.199,1.748-6.921,3.712-1.723,1.964-2.953,4.396-3.691,7.294-.738,2.899-1.107,6.009-1.107,9.331,0,1.908.138,3.713.416,5.418.277,1.704.768,3.202,1.476,4.492.707,1.291,1.692,2.24,2.953,2.847,1.26.609,2.845.745,4.752.408ZM75.381,185.688c-3.506.618-6.414.531-8.72-.262-2.307-.793-4.138-2.131-5.491-4.015-1.354-1.884-2.322-4.127-2.907-6.732-.585-2.603-.876-5.413-.876-8.427,0-5.413.891-10.262,2.676-14.544,1.784-4.283,4.444-7.828,7.982-10.636,3.537-2.806,7.951-4.677,13.243-5.61,1.599-.282,3.922-.461,6.967-.537,3.045-.075,6.197.215,9.458.87v35.712l.923,8.697-9.505,1.676-.646-4.776-.369-.028c-1.231,2.002-2.893,3.802-4.983,5.401-2.092,1.599-4.676,2.669-7.751,3.212Z"/>
      <path class="cls-5" d="M160.554,160.334l2.769,6.617c-1.354,1.224-3.107,2.317-5.26,3.281-2.154.964-4.307,1.635-6.459,2.015-3.262.575-5.86.603-7.797.083-1.938-.519-3.385-1.417-4.337-2.695-.955-1.277-1.569-2.829-1.846-4.658-.277-1.827-.415-3.756-.415-5.786v-23.716l-16.795,2.961v23.531c0,2.83.491,4.665,1.476,5.507.983.841,2.399,1.099,4.245.774,1.23-.217,2.321-.578,3.276-1.085.953-.505,1.8-1.01,2.538-1.509l1.846,7.058c-1.169,1.007-2.708,1.923-4.614,2.751-1.908.829-3.723,1.395-5.445,1.698-3.261.575-5.86.603-7.798.083-1.938-.519-3.368-1.42-4.291-2.703-.923-1.283-1.523-2.837-1.8-4.666-.277-1.827-.415-3.756-.415-5.786v-49.924l10.981-1.937v17.718l16.795-2.961v-17.718l11.073-1.953v17.718l12.458-2.196v8.49l-12.458,2.196v23.531c0,2.83.568,4.668,1.707,5.513,1.138.846,2.661,1.099,4.568.763,1.23-.217,2.353-.63,3.368-1.239,1.015-.609,1.892-1.195,2.63-1.756Z"/>
      <path class="cls-5" d="M181.871,166.911c-3.137.553-5.598.526-7.382-.082-1.785-.608-3.091-1.624-3.922-3.046s-1.354-3.083-1.568-4.983c-.217-1.9-.323-3.896-.323-5.988v-49.093l11.073-1.953v48.908c0,2.893.354,4.875,1.062,5.95.706,1.076,2.014,1.445,3.922,1.108.86-.152,1.783-.453,2.768-.903.984-.451,1.969-.978,2.954-1.582l2.399,6.959c-1.292,1.09-2.954,2.058-4.984,2.908-2.03.85-4.029,1.449-5.998,1.796Z"/>
      <path class="cls-5" d="M205.866,134.903c.983-.173,2.183-.431,3.599-.772,1.415-.343,2.875-.815,4.384-1.42,1.506-.603,2.92-1.313,4.244-2.132,1.322-.817,2.384-1.789,3.184-2.915.798-1.124,1.199-2.394,1.199-3.81,0-1.722-.508-2.97-1.522-3.746-1.016-.774-2.354-1.015-4.014-.722-1.846.326-3.446.992-4.799,2-1.354,1.008-2.491,2.238-3.415,3.693-.922,1.455-1.615,3.039-2.076,4.75-.461,1.712-.723,3.404-.784,5.075ZM216.57,160.792c-5.045.89-9.152.599-12.32-.873-3.169-1.471-5.491-3.844-6.967-7.123-1.476-3.276-2.215-7.223-2.215-11.836,0-3.383.476-6.696,1.43-9.941.953-3.244,2.384-6.218,4.291-8.924,1.906-2.703,4.26-4.996,7.06-6.874,2.799-1.878,6.044-3.142,9.736-3.792,4.552-.803,8.134-.328,10.75,1.426,2.614,1.754,3.922,4.693,3.922,8.813,0,2.831-.569,5.314-1.707,7.454-1.139,2.138-2.646,3.989-4.522,5.549-1.877,1.562-3.968,2.884-6.274,3.968-2.307,1.084-4.631,1.955-6.968,2.612-2.339.658-4.522,1.167-6.552,1.524.185,1.875.677,3.618,1.478,5.229.798,1.613,2.03,2.827,3.691,3.641,1.661.814,3.783.994,6.368.538,1.845-.325,3.506-.849,4.982-1.57,1.477-.722,2.769-1.504,3.876-2.345,1.107-.841,2.03-1.572,2.769-2.195l3.415,6.688c-.494.518-1.462,1.318-2.908,2.404-1.445,1.085-3.307,2.168-5.583,3.245-2.276,1.077-4.861,1.872-7.751,2.382Z"/>
      <polygon class="cls-4" points="23.345 101.427 23.345 40.061 62.656 33.129 62.656 42.911 34.603 47.857 34.603 63.638 57.858 59.537 57.858 69.318 34.603 73.419 34.603 99.442 23.345 101.427"/>
      <path class="cls-4" d="M70.223,93.161v-46.417l10.981-1.936v46.417l-10.981,1.936ZM75.668,38.586c-1.908.336-3.431.021-4.568-.947-1.139-.967-1.707-2.344-1.707-4.129,0-1.661.568-3.191,1.707-4.592,1.138-1.4,2.661-2.268,4.568-2.604,1.906-.336,3.444-.022,4.614.939,1.168.963,1.753,2.306,1.753,4.028s-.6,3.29-1.799,4.701c-1.2,1.411-2.722,2.279-4.568,2.604Z"/>
      <path class="cls-4" d="M92.832,89.175v-38.389l-.831-7.882,9.228-1.627.922,5.65c1.6-2.619,3.614-4.758,6.044-6.418,2.43-1.658,5.152-2.753,8.167-3.285,4.675-.824,8.289-.154,10.843,2.01,2.552,2.166,3.83,5.984,3.83,11.459v31.744l-10.981,1.937v-29.345c0-1.906-.17-3.57-.507-4.987-.339-1.417-1.001-2.484-1.984-3.203-.984-.717-2.461-.904-4.43-.557-1.845.326-3.476,1.06-4.891,2.2-1.416,1.142-2.523,2.475-3.322,4.001-.801,1.525-1.2,3.087-1.2,4.687v30.083l-10.889,1.92Z"/>
      <path class="cls-4" d="M160.564,70.496c1.968-.347,3.629-1.024,4.983-2.032,1.353-1.007,2.383-2.188,3.092-3.544.706-1.355,1.061-2.679,1.061-3.971v-23.9c-.678-.187-1.661-.307-2.952-.356-1.293-.048-2.646.052-4.061.301-2.893.51-5.199,1.748-6.921,3.713-1.723,1.964-2.953,4.396-3.691,7.294-.738,2.898-1.107,6.009-1.107,9.331,0,1.908.139,3.712.416,5.417.277,1.704.769,3.203,1.476,4.492.707,1.291,1.692,2.239,2.953,2.847,1.26.609,2.845.745,4.752.408ZM158.165,79.039c-3.507.619-6.414.532-8.721-.261-2.307-.793-4.138-2.131-5.491-4.015-1.354-1.883-2.323-4.126-2.907-6.731-.585-2.603-.877-5.413-.877-8.427,0-5.413.891-10.262,2.677-14.544,1.783-4.283,4.443-7.828,7.981-10.636,3.538-2.807,7.951-4.677,13.243-5.611,1.6-.282,3.922-.461,6.967-.537,3.046-.075,6.197.215,9.459.87v35.712l.922,8.697-9.505,1.676-.646-4.776-.37-.028c-1.231,2.002-2.892,3.802-4.982,5.401-2.092,1.599-4.676,2.669-7.751,3.211Z"/>
      <path class="cls-4" d="M205.318,70.724c-3.137.553-5.598.526-7.382-.082-1.785-.608-3.091-1.624-3.922-3.045s-1.354-3.084-1.568-4.983c-.217-1.9-.323-3.896-.323-5.988V7.532l11.073-1.952v48.908c0,2.893.354,4.875,1.062,5.949.706,1.076,2.014,1.445,3.922,1.108.86-.152,1.783-.453,2.768-.903.984-.451,1.969-.978,2.954-1.583l2.399,6.96c-1.292,1.09-2.954,2.058-4.984,2.908-2.03.85-4.029,1.449-5.998,1.796Z"/>
      <path class="cls-4" d="M16.839,157.013l6.921-1.221c3.937-.694,6.767-1.992,8.49-3.895,1.721-1.903,2.583-4.086,2.583-6.547,0-2.275-.447-3.903-1.338-4.886-.892-.98-2.122-1.548-3.691-1.702-1.569-.153-3.368-.052-5.398.306l-7.567,1.334v16.61ZM5.58,195.265v-61.366l20.763-3.661c3.507-.618,6.783-.765,9.828-.441,3.045.326,5.505,1.382,7.383,3.174,1.875,1.792,2.814,4.657,2.814,8.593,0,3.322-.862,6.228-2.584,8.715-1.723,2.488-3.938,4.556-6.644,6.201,3.814.127,6.813,1.229,8.998,3.304,2.183,2.076,3.276,5.144,3.276,9.204,0,5.969-2.016,10.907-6.044,14.816-4.03,3.911-9.89,6.543-17.58,7.898l-20.21,3.563ZM16.839,184.605l8.767-1.546c3.014-.531,5.382-1.379,7.105-2.544,1.722-1.165,2.953-2.551,3.691-4.158.738-1.606,1.107-3.333,1.107-5.179,0-3.075-1.015-5.266-3.045-6.568-2.03-1.303-4.861-1.634-8.49-.994l-9.136,1.611v19.378Z"/>
      <path class="cls-4" d="M76.635,175.999c1.968-.347,3.629-1.024,4.983-2.032,1.353-1.007,2.384-2.188,3.091-3.544.707-1.355,1.062-2.679,1.062-3.971v-23.9c-.678-.187-1.661-.307-2.953-.356-1.292-.048-2.646.052-4.061.301-2.892.51-5.199,1.748-6.921,3.712-1.723,1.964-2.953,4.396-3.691,7.294-.738,2.899-1.107,6.009-1.107,9.331,0,1.908.138,3.713.416,5.418.277,1.704.768,3.202,1.476,4.492.707,1.291,1.692,2.24,2.953,2.847,1.26.609,2.845.745,4.752.408ZM74.236,184.543c-3.506.618-6.414.531-8.72-.262-2.307-.793-4.138-2.131-5.491-4.015-1.354-1.884-2.322-4.127-2.907-6.732-.585-2.603-.876-5.413-.876-8.427,0-5.413.891-10.262,2.676-14.544,1.784-4.283,4.444-7.828,7.982-10.636,3.537-2.806,7.951-4.677,13.243-5.61,1.599-.282,3.922-.461,6.967-.537,3.045-.075,6.197.215,9.458.87v35.712l.923,8.697-9.505,1.676-.646-4.776-.369-.028c-1.231,2.002-2.893,3.802-4.983,5.401-2.092,1.599-4.676,2.669-7.751,3.212Z"/>
      <path class="cls-4" d="M159.409,159.189l2.769,6.617c-1.354,1.224-3.107,2.317-5.26,3.281-2.154.964-4.307,1.635-6.459,2.015-3.262.575-5.86.603-7.797.083-1.938-.519-3.385-1.417-4.337-2.695-.955-1.277-1.569-2.829-1.846-4.658-.277-1.827-.415-3.756-.415-5.786v-23.716l-16.795,2.961v23.531c0,2.83.491,4.665,1.476,5.507.983.841,2.399,1.099,4.245.774,1.23-.217,2.321-.578,3.276-1.085.953-.505,1.8-1.01,2.538-1.509l1.846,7.058c-1.169,1.007-2.708,1.923-4.614,2.751-1.908.829-3.723,1.395-5.445,1.698-3.261.575-5.86.603-7.798.083-1.938-.519-3.368-1.42-4.291-2.703-.923-1.283-1.523-2.837-1.8-4.666-.277-1.827-.415-3.756-.415-5.786v-49.924l10.981-1.937v17.718l16.795-2.961v-17.718l11.073-1.953v17.718l12.458-2.196v8.49l-12.458,2.196v23.531c0,2.83.568,4.668,1.707,5.513,1.138.846,2.661,1.099,4.568.763,1.23-.217,2.353-.63,3.368-1.239,1.015-.609,1.892-1.195,2.63-1.756Z"/>
      <path class="cls-4" d="M180.726,165.766c-3.137.553-5.598.526-7.382-.082-1.785-.608-3.091-1.624-3.922-3.046s-1.354-3.083-1.568-4.983c-.217-1.9-.323-3.896-.323-5.988v-49.093l11.073-1.953v48.908c0,2.893.354,4.875,1.062,5.95.706,1.076,2.014,1.445,3.922,1.108.86-.152,1.783-.453,2.768-.903.984-.451,1.969-.978,2.954-1.582l2.399,6.959c-1.292,1.09-2.954,2.058-4.984,2.908-2.03.85-4.029,1.449-5.998,1.796Z"/>
      <path class="cls-4" d="M204.721,133.758c.983-.173,2.183-.431,3.599-.772,1.415-.343,2.875-.815,4.384-1.42,1.506-.603,2.92-1.313,4.244-2.132,1.322-.817,2.384-1.789,3.184-2.915.798-1.124,1.199-2.394,1.199-3.81,0-1.722-.508-2.97-1.522-3.746-1.016-.774-2.354-1.015-4.014-.722-1.846.326-3.446.992-4.799,2-1.354,1.008-2.491,2.238-3.415,3.693-.922,1.455-1.615,3.039-2.076,4.75-.461,1.712-.723,3.404-.784,5.075ZM215.425,159.647c-5.045.89-9.152.599-12.32-.873-3.169-1.471-5.491-3.844-6.967-7.123-1.476-3.276-2.215-7.223-2.215-11.836,0-3.383.476-6.696,1.43-9.941.953-3.244,2.384-6.218,4.291-8.924,1.906-2.703,4.26-4.996,7.06-6.874,2.799-1.878,6.044-3.142,9.736-3.792,4.552-.803,8.134-.328,10.75,1.426,2.614,1.754,3.922,4.693,3.922,8.813,0,2.831-.569,5.314-1.707,7.454-1.139,2.138-2.646,3.989-4.522,5.549-1.877,1.562-3.968,2.884-6.274,3.968-2.307,1.084-4.631,1.955-6.968,2.612-2.339.658-4.522,1.167-6.552,1.524.185,1.875.677,3.618,1.478,5.229.798,1.613,2.03,2.827,3.691,3.641,1.661.814,3.783.994,6.368.538,1.845-.325,3.506-.849,4.982-1.57,1.477-.722,2.769-1.504,3.876-2.345,1.107-.841,2.03-1.572,2.769-2.195l3.415,6.688c-.494.518-1.462,1.318-2.908,2.404-1.445,1.085-3.307,2.168-5.583,3.245-2.276,1.077-4.861,1.872-7.751,2.382Z"/>
      <polygon class="cls-6" points="22.2 100.282 22.2 38.916 61.511 31.984 61.511 41.766 33.458 46.712 33.458 62.493 56.713 58.392 56.713 68.173 33.458 72.274 33.458 98.297 22.2 100.282"/>
      <path class="cls-6" d="M69.078,92.016v-46.417l10.981-1.936v46.417l-10.981,1.936ZM74.523,37.441c-1.908.336-3.431.021-4.568-.947-1.139-.967-1.707-2.344-1.707-4.129,0-1.661.568-3.191,1.707-4.592,1.138-1.4,2.661-2.268,4.568-2.604,1.906-.336,3.444-.022,4.614.939,1.168.963,1.753,2.306,1.753,4.028s-.6,3.29-1.799,4.701c-1.2,1.411-2.722,2.279-4.568,2.604Z"/>
      <path class="cls-6" d="M91.687,88.03v-38.389l-.831-7.882,9.228-1.627.922,5.65c1.6-2.619,3.614-4.758,6.044-6.418,2.43-1.658,5.152-2.753,8.167-3.285,4.675-.824,8.289-.154,10.843,2.01,2.552,2.166,3.83,5.984,3.83,11.459v31.744l-10.981,1.937v-29.345c0-1.906-.17-3.57-.507-4.987-.339-1.417-1.001-2.484-1.984-3.203-.984-.717-2.461-.904-4.43-.557-1.845.326-3.476,1.06-4.891,2.2-1.416,1.142-2.523,2.475-3.322,4.001-.801,1.525-1.2,3.087-1.2,4.687v30.083l-10.889,1.92Z"/>
      <path class="cls-6" d="M159.419,69.351c1.968-.347,3.629-1.024,4.983-2.032,1.353-1.007,2.383-2.188,3.092-3.544.706-1.355,1.061-2.679,1.061-3.971v-23.9c-.678-.187-1.661-.307-2.952-.356-1.293-.048-2.646.052-4.061.301-2.893.51-5.199,1.748-6.921,3.713-1.723,1.964-2.953,4.396-3.691,7.294-.738,2.898-1.107,6.009-1.107,9.331,0,1.908.139,3.712.416,5.417.277,1.704.769,3.203,1.476,4.492.707,1.291,1.692,2.239,2.953,2.847,1.26.609,2.845.745,4.752.408ZM157.02,77.894c-3.507.619-6.414.532-8.721-.261-2.307-.793-4.138-2.131-5.491-4.015-1.354-1.883-2.323-4.126-2.907-6.731-.585-2.603-.877-5.413-.877-8.427,0-5.413.891-10.262,2.677-14.544,1.783-4.283,4.443-7.828,7.981-10.636,3.538-2.807,7.951-4.677,13.243-5.611,1.6-.282,3.922-.461,6.967-.537,3.046-.075,6.197.215,9.459.87v35.712l.922,8.697-9.505,1.676-.646-4.776-.37-.028c-1.231,2.002-2.892,3.802-4.982,5.401-2.092,1.599-4.676,2.669-7.751,3.211Z"/>
      <path class="cls-6" d="M204.173,69.579c-3.137.553-5.598.526-7.382-.082-1.785-.608-3.091-1.624-3.922-3.045s-1.354-3.084-1.568-4.983c-.217-1.9-.323-3.896-.323-5.988V6.387l11.073-1.952v48.908c0,2.893.354,4.875,1.062,5.949.706,1.076,2.014,1.445,3.922,1.108.86-.152,1.783-.453,2.768-.903.984-.451,1.969-.978,2.954-1.583l2.399,6.96c-1.292,1.09-2.954,2.058-4.984,2.908-2.03.85-4.029,1.449-5.998,1.796Z"/>
      <path class="cls-6" d="M15.694,155.868l6.921-1.221c3.937-.694,6.767-1.992,8.49-3.895,1.721-1.903,2.583-4.086,2.583-6.547,0-2.275-.447-3.903-1.338-4.886-.892-.98-2.122-1.548-3.691-1.702-1.569-.153-3.368-.052-5.398.306l-7.567,1.334v16.61ZM4.435,194.12v-61.366l20.763-3.661c3.507-.618,6.783-.765,9.828-.441,3.045.326,5.505,1.382,7.383,3.174,1.875,1.792,2.814,4.657,2.814,8.593,0,3.322-.862,6.228-2.584,8.715-1.723,2.488-3.938,4.556-6.644,6.201,3.814.127,6.813,1.229,8.998,3.304,2.183,2.076,3.276,5.144,3.276,9.204,0,5.969-2.016,10.907-6.044,14.816-4.03,3.911-9.89,6.543-17.58,7.898l-20.21,3.563ZM15.694,183.46l8.767-1.546c3.014-.531,5.382-1.379,7.105-2.544,1.722-1.165,2.953-2.551,3.691-4.158.738-1.606,1.107-3.333,1.107-5.179,0-3.075-1.015-5.266-3.045-6.568-2.03-1.303-4.861-1.634-8.49-.994l-9.136,1.611v19.378Z"/>
      <path class="cls-6" d="M75.49,174.854c1.968-.347,3.629-1.024,4.983-2.032,1.353-1.007,2.384-2.188,3.091-3.544.707-1.355,1.062-2.679,1.062-3.971v-23.9c-.678-.187-1.661-.307-2.953-.356-1.292-.048-2.646.052-4.061.301-2.892.51-5.199,1.748-6.921,3.712-1.723,1.964-2.953,4.396-3.691,7.294-.738,2.899-1.107,6.009-1.107,9.331,0,1.908.138,3.713.416,5.418.277,1.704.768,3.202,1.476,4.492.707,1.291,1.692,2.24,2.953,2.847,1.26.609,2.845.745,4.752.408ZM73.091,183.398c-3.506.618-6.414.531-8.72-.262-2.307-.793-4.138-2.131-5.491-4.015-1.354-1.884-2.322-4.127-2.907-6.732-.585-2.603-.876-5.413-.876-8.427,0-5.413.891-10.262,2.676-14.544,1.784-4.283,4.444-7.828,7.982-10.636,3.537-2.806,7.951-4.677,13.243-5.61,1.599-.282,3.922-.461,6.967-.537,3.045-.075,6.197.215,9.458.87v35.712l.923,8.697-9.505,1.676-.646-4.776-.369-.028c-1.231,2.002-2.893,3.802-4.983,5.401-2.092,1.599-4.676,2.669-7.751,3.212Z"/>
      <path class="cls-6" d="M158.264,158.044l2.769,6.617c-1.354,1.224-3.107,2.317-5.26,3.281-2.154.964-4.307,1.635-6.459,2.015-3.262.575-5.86.603-7.797.083-1.938-.519-3.385-1.417-4.337-2.695-.955-1.277-1.569-2.829-1.846-4.658-.277-1.827-.415-3.756-.415-5.786v-23.716l-16.795,2.961v23.531c0,2.83.491,4.665,1.476,5.507.983.841,2.399,1.099,4.245.774,1.23-.217,2.321-.578,3.276-1.085.953-.505,1.8-1.01,2.538-1.509l1.846,7.058c-1.169,1.007-2.708,1.923-4.614,2.751-1.908.829-3.723,1.395-5.445,1.698-3.261.575-5.86.603-7.798.083-1.938-.519-3.368-1.42-4.291-2.703-.923-1.283-1.523-2.837-1.8-4.666-.277-1.827-.415-3.756-.415-5.786v-49.924l10.981-1.937v17.718l16.795-2.961v-17.718l11.073-1.953v17.718l12.458-2.196v8.49l-12.458,2.196v23.531c0,2.83.568,4.668,1.707,5.513,1.138.846,2.661,1.099,4.568.763,1.23-.217,2.353-.63,3.368-1.239,1.015-.609,1.892-1.195,2.63-1.756Z"/>
      <path class="cls-6" d="M179.581,164.621c-3.137.553-5.598.526-7.382-.082-1.785-.608-3.091-1.624-3.922-3.046s-1.354-3.083-1.568-4.983c-.217-1.9-.323-3.896-.323-5.988v-49.093l11.073-1.953v48.908c0,2.893.354,4.875,1.062,5.95.706,1.076,2.014,1.445,3.922,1.108.86-.152,1.783-.453,2.768-.903.984-.451,1.969-.978,2.954-1.582l2.399,6.959c-1.292,1.09-2.954,2.058-4.984,2.908-2.03.85-4.029,1.449-5.998,1.796Z"/>
      <path class="cls-6" d="M203.576,132.613c.983-.173,2.183-.431,3.599-.772,1.415-.343,2.875-.815,4.384-1.42,1.506-.603,2.92-1.313,4.244-2.132,1.322-.817,2.384-1.789,3.184-2.915.798-1.124,1.199-2.394,1.199-3.81,0-1.722-.508-2.97-1.522-3.746-1.016-.774-2.354-1.015-4.014-.722-1.846.326-3.446.992-4.799,2-1.354,1.008-2.491,2.238-3.415,3.693-.922,1.455-1.615,3.039-2.076,4.75-.461,1.712-.723,3.404-.784,5.075ZM214.28,158.502c-5.045.89-9.152.599-12.32-.873-3.169-1.471-5.491-3.844-6.967-7.123-1.476-3.276-2.215-7.223-2.215-11.836,0-3.383.476-6.696,1.43-9.941.953-3.244,2.384-6.218,4.291-8.924,1.906-2.703,4.26-4.996,7.06-6.874,2.799-1.878,6.044-3.142,9.736-3.792,4.552-.803,8.134-.328,10.75,1.426,2.614,1.754,3.922,4.693,3.922,8.813,0,2.831-.569,5.314-1.707,7.454-1.139,2.138-2.646,3.989-4.522,5.549-1.877,1.562-3.968,2.884-6.274,3.968-2.307,1.084-4.631,1.955-6.968,2.612-2.339.658-4.522,1.167-6.552,1.524.185,1.875.677,3.618,1.478,5.229.798,1.613,2.03,2.827,3.691,3.641,1.661.814,3.783.994,6.368.538,1.845-.325,3.506-.849,4.982-1.57,1.477-.722,2.769-1.504,3.876-2.345,1.107-.841,2.03-1.572,2.769-2.195l3.415,6.688c-.494.518-1.462,1.318-2.908,2.404-1.445,1.085-3.307,2.168-5.583,3.245-2.276,1.077-4.861,1.872-7.751,2.382Z"/>
      <polygon class="cls-3" points="21.055 99.137 21.055 37.771 60.366 30.839 60.366 40.621 32.313 45.567 32.313 61.348 55.568 57.247 55.568 67.028 32.313 71.129 32.313 97.152 21.055 99.137"/>
      <path class="cls-3" d="M67.933,90.871v-46.417l10.981-1.936v46.417l-10.981,1.936ZM73.378,36.296c-1.908.336-3.431.021-4.568-.947-1.139-.967-1.707-2.344-1.707-4.129,0-1.661.568-3.191,1.707-4.592,1.138-1.4,2.661-2.268,4.568-2.604,1.906-.336,3.444-.022,4.614.939,1.168.963,1.753,2.306,1.753,4.028s-.6,3.29-1.799,4.701c-1.2,1.411-2.722,2.279-4.568,2.604Z"/>
      <path class="cls-3" d="M90.542,86.885v-38.389l-.831-7.882,9.228-1.627.922,5.65c1.6-2.619,3.614-4.758,6.044-6.418,2.43-1.658,5.152-2.753,8.167-3.285,4.675-.824,8.289-.154,10.843,2.01,2.552,2.166,3.83,5.984,3.83,11.459v31.744l-10.981,1.937v-29.345c0-1.906-.17-3.57-.507-4.987-.339-1.417-1.001-2.484-1.984-3.203-.984-.717-2.461-.904-4.43-.557-1.845.326-3.476,1.06-4.891,2.2-1.416,1.142-2.523,2.475-3.322,4.001-.801,1.525-1.2,3.087-1.2,4.687v30.083l-10.889,1.92Z"/>
      <path class="cls-3" d="M158.274,68.206c1.968-.347,3.629-1.024,4.983-2.032,1.353-1.007,2.383-2.188,3.092-3.544.706-1.355,1.061-2.679,1.061-3.971v-23.9c-.678-.187-1.661-.307-2.952-.356-1.293-.048-2.646.052-4.061.301-2.893.51-5.199,1.748-6.921,3.713-1.723,1.964-2.953,4.396-3.691,7.294-.738,2.898-1.107,6.009-1.107,9.331,0,1.908.139,3.712.416,5.417.277,1.704.769,3.203,1.476,4.492.707,1.291,1.692,2.239,2.953,2.847,1.26.609,2.845.745,4.752.408ZM155.875,76.749c-3.507.619-6.414.532-8.721-.261-2.307-.793-4.138-2.131-5.491-4.015-1.354-1.883-2.323-4.126-2.907-6.731-.585-2.603-.877-5.413-.877-8.427,0-5.413.891-10.262,2.677-14.544,1.783-4.283,4.443-7.828,7.981-10.636,3.538-2.807,7.951-4.677,13.243-5.611,1.6-.282,3.922-.461,6.967-.537,3.046-.075,6.197.215,9.459.87v35.712l.922,8.697-9.505,1.676-.646-4.776-.37-.028c-1.231,2.002-2.892,3.802-4.982,5.401-2.092,1.599-4.676,2.669-7.751,3.211Z"/>
      <path class="cls-3" d="M203.028,68.434c-3.137.553-5.598.526-7.382-.082-1.785-.608-3.091-1.624-3.922-3.045s-1.354-3.084-1.568-4.983c-.217-1.9-.323-3.896-.323-5.988V5.242l11.073-1.952v48.908c0,2.893.354,4.875,1.062,5.949.706,1.076,2.014,1.445,3.922,1.108.86-.152,1.783-.453,2.768-.903.984-.451,1.969-.978,2.954-1.583l2.399,6.96c-1.292,1.09-2.954,2.058-4.984,2.908-2.03.85-4.029,1.449-5.998,1.796Z"/>
      <path class="cls-3" d="M14.549,154.723l6.921-1.221c3.937-.694,6.767-1.992,8.49-3.895,1.721-1.903,2.583-4.086,2.583-6.547,0-2.275-.447-3.903-1.338-4.886-.892-.98-2.122-1.548-3.691-1.702-1.569-.153-3.368-.052-5.398.306l-7.567,1.334v16.61ZM3.29,192.975v-61.366l20.763-3.661c3.507-.618,6.783-.765,9.828-.441,3.045.326,5.505,1.382,7.383,3.174,1.875,1.792,2.814,4.657,2.814,8.593,0,3.322-.862,6.228-2.584,8.715-1.723,2.488-3.938,4.556-6.644,6.201,3.814.127,6.813,1.229,8.998,3.304,2.183,2.076,3.276,5.144,3.276,9.204,0,5.969-2.016,10.907-6.044,14.816-4.03,3.911-9.89,6.543-17.58,7.898l-20.21,3.563ZM14.549,182.315l8.767-1.546c3.014-.531,5.382-1.379,7.105-2.544,1.722-1.165,2.953-2.551,3.691-4.158.738-1.606,1.107-3.333,1.107-5.179,0-3.075-1.015-5.266-3.045-6.568-2.03-1.303-4.861-1.634-8.49-.994l-9.136,1.611v19.378Z"/>
      <path class="cls-3" d="M74.345,173.709c1.968-.347,3.629-1.024,4.983-2.032,1.353-1.007,2.384-2.188,3.091-3.544.707-1.355,1.062-2.679,1.062-3.971v-23.9c-.678-.187-1.661-.307-2.953-.356-1.292-.048-2.646.052-4.061.301-2.892.51-5.199,1.748-6.921,3.712-1.723,1.964-2.953,4.396-3.691,7.294-.738,2.899-1.107,6.009-1.107,9.331,0,1.908.138,3.713.416,5.418.277,1.704.768,3.202,1.476,4.492.707,1.291,1.692,2.24,2.953,2.847,1.26.609,2.845.745,4.752.408ZM71.946,182.253c-3.506.618-6.414.531-8.72-.262-2.307-.793-4.138-2.131-5.491-4.015-1.354-1.884-2.322-4.127-2.907-6.732-.585-2.603-.876-5.413-.876-8.427,0-5.413.891-10.262,2.676-14.544,1.784-4.283,4.444-7.828,7.982-10.636,3.537-2.806,7.951-4.677,13.243-5.61,1.599-.282,3.922-.461,6.967-.537,3.045-.075,6.197.215,9.458.87v35.712l.923,8.697-9.505,1.676-.646-4.776-.369-.028c-1.231,2.002-2.893,3.802-4.983,5.401-2.092,1.599-4.676,2.669-7.751,3.212Z"/>
      <path class="cls-3" d="M157.119,156.899l2.769,6.617c-1.354,1.224-3.107,2.317-5.26,3.281-2.154.964-4.307,1.635-6.459,2.015-3.262.575-5.86.603-7.797.083-1.938-.519-3.385-1.417-4.337-2.695-.955-1.277-1.569-2.829-1.846-4.658-.277-1.827-.415-3.756-.415-5.786v-23.716l-16.795,2.961v23.531c0,2.83.491,4.665,1.476,5.507.983.841,2.399,1.099,4.245.774,1.23-.217,2.321-.578,3.276-1.085.953-.505,1.8-1.01,2.538-1.509l1.846,7.058c-1.169,1.007-2.708,1.923-4.614,2.751-1.908.829-3.723,1.395-5.445,1.698-3.261.575-5.86.603-7.798.083-1.938-.519-3.368-1.42-4.291-2.703-.923-1.283-1.523-2.837-1.8-4.666-.277-1.827-.415-3.756-.415-5.786v-49.924l10.981-1.937v17.718l16.795-2.961v-17.718l11.073-1.953v17.718l12.458-2.196v8.49l-12.458,2.196v23.531c0,2.83.568,4.668,1.707,5.513,1.138.846,2.661,1.099,4.568.763,1.23-.217,2.353-.63,3.368-1.239,1.015-.609,1.892-1.195,2.63-1.756Z"/>
      <path class="cls-3" d="M178.436,163.476c-3.137.553-5.598.526-7.382-.082-1.785-.608-3.091-1.624-3.922-3.046s-1.354-3.083-1.568-4.983c-.217-1.9-.323-3.896-.323-5.988v-49.093l11.073-1.953v48.908c0,2.893.354,4.875,1.062,5.95.706,1.076,2.014,1.445,3.922,1.108.86-.152,1.783-.453,2.768-.903.984-.451,1.969-.978,2.954-1.582l2.399,6.959c-1.292,1.09-2.954,2.058-4.984,2.908-2.03.85-4.029,1.449-5.998,1.796Z"/>
      <path class="cls-3" d="M202.431,131.468c.983-.173,2.183-.431,3.599-.772,1.415-.343,2.875-.815,4.384-1.42,1.506-.603,2.92-1.313,4.244-2.132,1.322-.817,2.384-1.789,3.184-2.915.798-1.124,1.199-2.394,1.199-3.81,0-1.722-.508-2.97-1.522-3.746-1.016-.774-2.354-1.015-4.014-.722-1.846.326-3.446.992-4.799,2-1.354,1.008-2.491,2.238-3.415,3.693-.922,1.455-1.615,3.039-2.076,4.75-.461,1.712-.723,3.404-.784,5.075ZM213.135,157.357c-5.045.89-9.152.599-12.32-.873-3.169-1.471-5.491-3.844-6.967-7.123-1.476-3.276-2.215-7.223-2.215-11.836,0-3.383.476-6.696,1.43-9.941.953-3.244,2.384-6.218,4.291-8.924,1.906-2.703,4.26-4.996,7.06-6.874,2.799-1.878,6.044-3.142,9.736-3.792,4.552-.803,8.134-.328,10.75,1.426,2.614,1.754,3.922,4.693,3.922,8.813,0,2.831-.569,5.314-1.707,7.454-1.139,2.138-2.646,3.989-4.522,5.549-1.877,1.562-3.968,2.884-6.274,3.968-2.307,1.084-4.631,1.955-6.968,2.612-2.339.658-4.522,1.167-6.552,1.524.185,1.875.677,3.618,1.478,5.229.798,1.613,2.03,2.827,3.691,3.641,1.661.814,3.783.994,6.368.538,1.845-.325,3.506-.849,4.982-1.57,1.477-.722,2.769-1.504,3.876-2.345,1.107-.841,2.03-1.572,2.769-2.195l3.415,6.688c-.494.518-1.462,1.318-2.908,2.404-1.445,1.085-3.307,2.168-5.583,3.245-2.276,1.077-4.861,1.872-7.751,2.382Z"/>
      <polygon class="cls-2" points="19.91 97.992 19.91 36.626 59.221 29.694 59.221 39.476 31.168 44.422 31.168 60.203 54.423 56.102 54.423 65.883 31.168 69.984 31.168 96.007 19.91 97.992"/>
      <path class="cls-2" d="M66.788,89.726v-46.417l10.981-1.936v46.417l-10.981,1.936ZM72.233,35.151c-1.908.336-3.431.021-4.568-.947-1.139-.967-1.707-2.344-1.707-4.129,0-1.661.568-3.191,1.707-4.592,1.138-1.4,2.661-2.268,4.568-2.604,1.906-.336,3.444-.022,4.614.939,1.168.963,1.753,2.306,1.753,4.028s-.6,3.29-1.799,4.701c-1.2,1.411-2.722,2.279-4.568,2.604Z"/>
      <path class="cls-2" d="M89.397,85.74v-38.389l-.831-7.882,9.228-1.627.922,5.65c1.6-2.619,3.614-4.758,6.044-6.418,2.43-1.658,5.152-2.753,8.167-3.285,4.675-.824,8.289-.154,10.843,2.01,2.552,2.166,3.83,5.984,3.83,11.459v31.744l-10.981,1.937v-29.345c0-1.906-.17-3.57-.507-4.987-.339-1.417-1.001-2.484-1.984-3.203-.984-.717-2.461-.904-4.43-.557-1.845.326-3.476,1.06-4.891,2.2-1.416,1.142-2.523,2.475-3.322,4.001-.801,1.525-1.2,3.087-1.2,4.687v30.083l-10.889,1.92Z"/>
      <path class="cls-2" d="M157.129,67.061c1.968-.347,3.629-1.024,4.983-2.032,1.353-1.007,2.383-2.188,3.092-3.544.706-1.355,1.061-2.679,1.061-3.971v-23.9c-.678-.187-1.661-.307-2.952-.356-1.293-.048-2.646.052-4.061.301-2.893.51-5.199,1.748-6.921,3.713-1.723,1.964-2.953,4.396-3.691,7.294-.738,2.898-1.107,6.009-1.107,9.331,0,1.908.139,3.712.416,5.417.277,1.704.769,3.203,1.476,4.492.707,1.291,1.692,2.239,2.953,2.847,1.26.609,2.845.745,4.752.408ZM154.73,75.604c-3.507.619-6.414.532-8.721-.261-2.307-.793-4.138-2.131-5.491-4.015-1.354-1.883-2.323-4.126-2.907-6.731-.585-2.603-.877-5.413-.877-8.427,0-5.413.891-10.262,2.677-14.544,1.783-4.283,4.443-7.828,7.981-10.636,3.538-2.807,7.951-4.677,13.243-5.611,1.6-.282,3.922-.461,6.967-.537,3.046-.075,6.197.215,9.459.87v35.712l.922,8.697-9.505,1.676-.646-4.776-.37-.028c-1.231,2.002-2.892,3.802-4.982,5.401-2.092,1.599-4.676,2.669-7.751,3.211Z"/>
      <path class="cls-2" d="M201.883,67.289c-3.137.553-5.598.526-7.382-.082-1.785-.608-3.091-1.624-3.922-3.045s-1.354-3.084-1.568-4.983c-.217-1.9-.323-3.896-.323-5.988V4.097l11.073-1.952v48.908c0,2.893.354,4.875,1.062,5.949.706,1.076,2.014,1.445,3.922,1.108.86-.152,1.783-.453,2.768-.903.984-.451,1.969-.978,2.954-1.583l2.399,6.96c-1.292,1.09-2.954,2.058-4.984,2.908-2.03.85-4.029,1.449-5.998,1.796Z"/>
      <path class="cls-2" d="M13.404,153.578l6.921-1.221c3.937-.694,6.767-1.992,8.49-3.895,1.721-1.903,2.583-4.086,2.583-6.547,0-2.275-.447-3.903-1.338-4.886-.892-.98-2.122-1.548-3.691-1.702-1.569-.153-3.368-.052-5.398.306l-7.567,1.334v16.61ZM2.145,191.83v-61.366l20.763-3.661c3.507-.618,6.783-.765,9.828-.441,3.045.326,5.505,1.382,7.383,3.174,1.875,1.792,2.814,4.657,2.814,8.593,0,3.322-.862,6.228-2.584,8.715-1.723,2.488-3.938,4.556-6.644,6.201,3.814.127,6.813,1.229,8.998,3.304,2.183,2.076,3.276,5.144,3.276,9.204,0,5.969-2.016,10.907-6.044,14.816-4.03,3.911-9.89,6.543-17.58,7.898l-20.21,3.563ZM13.404,181.17l8.767-1.546c3.014-.531,5.382-1.379,7.105-2.544,1.722-1.165,2.953-2.551,3.691-4.158.738-1.606,1.107-3.333,1.107-5.179,0-3.075-1.015-5.266-3.045-6.568-2.03-1.303-4.861-1.634-8.49-.994l-9.136,1.611v19.378Z"/>
      <path class="cls-2" d="M73.2,172.564c1.968-.347,3.629-1.024,4.983-2.032,1.353-1.007,2.384-2.188,3.091-3.544.707-1.355,1.062-2.679,1.062-3.971v-23.9c-.678-.187-1.661-.307-2.953-.356-1.292-.048-2.646.052-4.061.301-2.892.51-5.199,1.748-6.921,3.712-1.723,1.964-2.953,4.396-3.691,7.294-.738,2.899-1.107,6.009-1.107,9.331,0,1.908.138,3.713.416,5.418.277,1.704.768,3.202,1.476,4.492.707,1.291,1.692,2.24,2.953,2.847,1.26.609,2.845.745,4.752.408ZM70.801,181.108c-3.506.618-6.414.531-8.72-.262-2.307-.793-4.138-2.131-5.491-4.015-1.354-1.884-2.322-4.127-2.907-6.732-.585-2.603-.876-5.413-.876-8.427,0-5.413.891-10.262,2.676-14.544,1.784-4.283,4.444-7.828,7.982-10.636,3.537-2.806,7.951-4.677,13.243-5.61,1.599-.282,3.922-.461,6.967-.537,3.045-.075,6.197.215,9.458.87v35.712l.923,8.697-9.505,1.676-.646-4.776-.369-.028c-1.231,2.002-2.893,3.802-4.983,5.401-2.092,1.599-4.676,2.669-7.751,3.212Z"/>
      <path class="cls-2" d="M155.974,155.754l2.769,6.617c-1.354,1.224-3.107,2.317-5.26,3.281-2.154.964-4.307,1.635-6.459,2.015-3.262.575-5.86.603-7.797.083-1.938-.519-3.385-1.417-4.337-2.695-.955-1.277-1.569-2.829-1.846-4.658-.277-1.827-.415-3.756-.415-5.786v-23.716l-16.795,2.961v23.531c0,2.83.491,4.665,1.476,5.507.983.841,2.399,1.099,4.245.774,1.23-.217,2.321-.578,3.276-1.085.953-.505,1.8-1.01,2.538-1.509l1.846,7.058c-1.169,1.007-2.708,1.923-4.614,2.751-1.908.829-3.723,1.395-5.445,1.698-3.261.575-5.86.603-7.798.083-1.938-.519-3.368-1.42-4.291-2.703-.923-1.283-1.523-2.837-1.8-4.666-.277-1.827-.415-3.756-.415-5.786v-49.924l10.981-1.937v17.718l16.795-2.961v-17.718l11.073-1.953v17.718l12.458-2.196v8.49l-12.458,2.196v23.531c0,2.83.568,4.668,1.707,5.513,1.138.846,2.661,1.099,4.568.763,1.23-.217,2.353-.63,3.368-1.239,1.015-.609,1.892-1.195,2.63-1.756Z"/>
      <path class="cls-2" d="M177.291,162.33c-3.137.553-5.598.526-7.382-.082-1.785-.608-3.091-1.624-3.922-3.046s-1.354-3.083-1.568-4.983c-.217-1.9-.323-3.896-.323-5.988v-49.093l11.073-1.953v48.908c0,2.893.354,4.875,1.062,5.95.706,1.076,2.014,1.445,3.922,1.108.86-.152,1.783-.453,2.768-.903.984-.451,1.969-.978,2.954-1.582l2.399,6.959c-1.292,1.09-2.954,2.058-4.984,2.908-2.03.85-4.029,1.449-5.998,1.796Z"/>
      <path class="cls-2" d="M201.286,130.323c.983-.173,2.183-.431,3.599-.772,1.415-.343,2.875-.815,4.384-1.42,1.506-.603,2.92-1.313,4.244-2.132,1.322-.817,2.384-1.789,3.184-2.915.798-1.124,1.199-2.394,1.199-3.81,0-1.722-.508-2.97-1.522-3.746-1.016-.774-2.354-1.015-4.014-.722-1.846.326-3.446.992-4.799,2-1.354,1.008-2.491,2.238-3.415,3.693-.922,1.455-1.615,3.039-2.076,4.75-.461,1.712-.723,3.404-.784,5.075ZM211.99,156.212c-5.045.89-9.152.599-12.32-.873-3.169-1.471-5.491-3.844-6.967-7.123-1.476-3.276-2.215-7.223-2.215-11.836,0-3.383.476-6.696,1.43-9.941.953-3.244,2.384-6.218,4.291-8.924,1.906-2.703,4.26-4.996,7.06-6.874,2.799-1.878,6.044-3.142,9.736-3.792,4.552-.803,8.134-.328,10.75,1.426,2.614,1.754,3.922,4.693,3.922,8.813,0,2.831-.569,5.314-1.707,7.454-1.139,2.138-2.646,3.989-4.522,5.549-1.877,1.562-3.968,2.884-6.274,3.968-2.307,1.084-4.631,1.955-6.968,2.612-2.339.658-4.522,1.167-6.552,1.524.185,1.875.677,3.618,1.478,5.229.798,1.613,2.03,2.827,3.691,3.641,1.661.814,3.783.994,6.368.538,1.845-.325,3.506-.849,4.982-1.57,1.477-.722,2.769-1.504,3.876-2.345,1.107-.841,2.03-1.572,2.769-2.195l3.415,6.688c-.494.518-1.462,1.318-2.908,2.404-1.445,1.085-3.307,2.168-5.583,3.245-2.276,1.077-4.861,1.872-7.751,2.382Z"/>
      <path class="cls-1" d="M18.765,96.847v-61.366l39.312-6.932v9.781l-28.053,4.947v15.78l23.255-4.101v9.781l-23.255,4.101v26.023l-11.258,1.985Z"/>
      <path class="cls-1" d="M65.643,88.581v-46.417l10.981-1.936v46.417l-10.981,1.936ZM71.088,34.006c-1.908.336-3.431.021-4.568-.947-1.139-.967-1.707-2.344-1.707-4.129,0-1.661.568-3.191,1.707-4.592,1.138-1.4,2.661-2.268,4.568-2.604,1.906-.336,3.444-.022,4.614.939,1.168.963,1.753,2.306,1.753,4.028s-.6,3.29-1.799,4.701c-1.2,1.411-2.722,2.279-4.568,2.604Z"/>
      <path class="cls-1" d="M88.252,84.595v-38.389l-.831-7.882,9.228-1.627.922,5.65c1.6-2.619,3.614-4.758,6.044-6.418,2.43-1.658,5.152-2.753,8.167-3.285,4.675-.824,8.289-.154,10.843,2.01,2.552,2.166,3.83,5.984,3.83,11.459v31.744l-10.981,1.937v-29.345c0-1.906-.17-3.57-.507-4.987-.339-1.417-1.001-2.484-1.984-3.203-.984-.717-2.461-.904-4.43-.557-1.845.326-3.476,1.06-4.891,2.2-1.416,1.142-2.523,2.475-3.322,4.001-.801,1.525-1.2,3.087-1.2,4.687v30.083l-10.889,1.92Z"/>
      <path class="cls-1" d="M155.984,65.916c1.968-.347,3.629-1.024,4.983-2.032,1.353-1.007,2.383-2.188,3.092-3.544.706-1.355,1.061-2.679,1.061-3.971v-23.9c-.678-.187-1.661-.307-2.952-.356-1.293-.048-2.646.052-4.061.301-2.893.51-5.199,1.748-6.921,3.713-1.723,1.964-2.953,4.396-3.691,7.294-.738,2.898-1.107,6.009-1.107,9.331,0,1.908.139,3.712.416,5.417.277,1.704.769,3.203,1.476,4.492.707,1.291,1.692,2.239,2.953,2.847,1.26.609,2.845.745,4.752.408ZM153.585,74.458c-3.507.619-6.414.532-8.721-.261-2.307-.793-4.138-2.131-5.491-4.015-1.354-1.883-2.323-4.126-2.907-6.731-.585-2.603-.877-5.413-.877-8.427,0-5.413.891-10.262,2.677-14.544,1.783-4.283,4.443-7.828,7.981-10.636,3.538-2.807,7.951-4.677,13.243-5.611,1.6-.282,3.922-.461,6.967-.537,3.046-.075,6.197.215,9.459.87v35.712l.922,8.697-9.505,1.676-.646-4.776-.37-.028c-1.231,2.002-2.892,3.802-4.982,5.401-2.092,1.599-4.676,2.669-7.751,3.211Z"/>
      <path class="cls-1" d="M200.738,66.144c-3.137.553-5.598.526-7.382-.082-1.785-.608-3.091-1.624-3.922-3.045s-1.354-3.084-1.568-4.983c-.217-1.9-.323-3.896-.323-5.988V2.952l11.073-1.952v48.908c0,2.893.354,4.875,1.062,5.949.706,1.076,2.014,1.445,3.922,1.108.86-.152,1.783-.453,2.768-.903.984-.451,1.969-.978,2.954-1.583l2.399,6.96c-1.292,1.09-2.954,2.058-4.984,2.908-2.03.85-4.029,1.449-5.998,1.796Z"/>
      <path class="cls-1" d="M12.259,152.433l6.921-1.221c3.937-.694,6.767-1.992,8.49-3.895,1.721-1.903,2.583-4.086,2.583-6.547,0-2.275-.447-3.903-1.338-4.886-.892-.98-2.122-1.548-3.691-1.702-1.569-.153-3.368-.052-5.398.306l-7.567,1.334v16.61ZM1,190.684v-61.366l20.763-3.661c3.507-.618,6.783-.765,9.828-.441,3.045.326,5.505,1.382,7.383,3.174,1.875,1.792,2.814,4.657,2.814,8.593,0,3.322-.862,6.228-2.584,8.715-1.723,2.488-3.938,4.556-6.644,6.201,3.814.127,6.813,1.229,8.998,3.304,2.183,2.076,3.276,5.144,3.276,9.204,0,5.969-2.016,10.907-6.044,14.816-4.03,3.911-9.89,6.543-17.58,7.898l-20.21,3.563ZM12.259,180.025l8.767-1.546c3.014-.531,5.382-1.379,7.105-2.544,1.722-1.165,2.953-2.551,3.691-4.158.738-1.606,1.107-3.333,1.107-5.179,0-3.075-1.015-5.266-3.045-6.568-2.03-1.303-4.861-1.634-8.49-.994l-9.136,1.611v19.378Z"/>
      <path class="cls-1" d="M72.055,171.419c1.968-.347,3.629-1.024,4.983-2.032,1.353-1.007,2.384-2.188,3.091-3.544.707-1.355,1.062-2.679,1.062-3.971v-23.9c-.678-.187-1.661-.307-2.953-.356-1.292-.048-2.646.052-4.061.301-2.892.51-5.199,1.748-6.921,3.712-1.723,1.964-2.953,4.396-3.691,7.294-.738,2.899-1.107,6.009-1.107,9.331,0,1.908.138,3.713.416,5.418.277,1.704.768,3.202,1.476,4.492.707,1.291,1.692,2.24,2.953,2.847,1.26.609,2.845.745,4.752.408ZM69.656,179.963c-3.506.618-6.414.531-8.72-.262-2.307-.793-4.138-2.131-5.491-4.015-1.354-1.884-2.322-4.127-2.907-6.732-.585-2.603-.876-5.413-.876-8.427,0-5.413.891-10.262,2.676-14.544,1.784-4.283,4.444-7.828,7.982-10.636,3.537-2.806,7.951-4.677,13.243-5.61,1.599-.282,3.922-.461,6.967-.537,3.045-.075,6.197.215,9.458.87v35.712l.923,8.697-9.505,1.676-.646-4.776-.369-.028c-1.231,2.002-2.893,3.802-4.983,5.401-2.092,1.599-4.676,2.669-7.751,3.212Z"/>
      <path class="cls-1" d="M154.829,154.609l2.769,6.617c-1.354,1.224-3.107,2.317-5.26,3.281-2.154.964-4.307,1.635-6.459,2.015-3.262.575-5.86.603-7.797.083-1.938-.519-3.385-1.417-4.337-2.695-.955-1.277-1.569-2.829-1.846-4.658-.277-1.827-.415-3.756-.415-5.786v-23.716l-16.795,2.961v23.531c0,2.83.491,4.665,1.476,5.507.983.841,2.399,1.099,4.245.774,1.23-.217,2.321-.578,3.276-1.085.953-.505,1.8-1.01,2.538-1.509l1.846,7.058c-1.169,1.007-2.708,1.923-4.614,2.751-1.908.829-3.723,1.395-5.445,1.698-3.261.575-5.86.603-7.798.083-1.938-.519-3.368-1.42-4.291-2.703-.923-1.283-1.523-2.837-1.8-4.666-.277-1.827-.415-3.756-.415-5.786v-49.924l10.981-1.937v17.718l16.795-2.961v-17.718l11.073-1.953v17.718l12.458-2.196v8.49l-12.458,2.196v23.531c0,2.83.568,4.668,1.707,5.513,1.138.846,2.661,1.099,4.568.763,1.23-.217,2.353-.63,3.368-1.239,1.015-.609,1.892-1.195,2.63-1.756Z"/>
      <path class="cls-1" d="M176.146,161.185c-3.137.553-5.598.526-7.382-.082-1.785-.608-3.091-1.624-3.922-3.046s-1.354-3.083-1.568-4.983c-.217-1.9-.323-3.896-.323-5.988v-49.093l11.073-1.953v48.908c0,2.893.354,4.875,1.062,5.95.706,1.076,2.014,1.445,3.922,1.108.86-.152,1.783-.453,2.768-.903.984-.451,1.969-.978,2.954-1.582l2.399,6.959c-1.292,1.09-2.954,2.058-4.984,2.908-2.03.85-4.029,1.449-5.998,1.796Z"/>
      <path class="cls-1" d="M200.141,129.178c.983-.173,2.183-.431,3.599-.772,1.415-.343,2.875-.815,4.384-1.42,1.506-.603,2.92-1.313,4.244-2.132,1.322-.817,2.384-1.789,3.184-2.915.798-1.124,1.199-2.394,1.199-3.81,0-1.722-.508-2.97-1.522-3.746-1.016-.774-2.354-1.015-4.014-.722-1.846.326-3.446.992-4.799,2-1.354,1.008-2.491,2.238-3.415,3.693-.922,1.455-1.615,3.039-2.076,4.75-.461,1.712-.723,3.404-.784,5.075ZM210.845,155.067c-5.045.89-9.152.599-12.32-.873-3.169-1.471-5.491-3.844-6.967-7.123-1.476-3.276-2.215-7.223-2.215-11.836,0-3.383.476-6.696,1.43-9.941.953-3.244,2.384-6.218,4.291-8.924,1.906-2.703,4.26-4.996,7.06-6.874,2.799-1.878,6.044-3.142,9.736-3.792,4.552-.803,8.134-.328,10.75,1.426,2.614,1.754,3.922,4.693,3.922,8.813,0,2.831-.569,5.314-1.707,7.454-1.139,2.138-2.646,3.989-4.522,5.549-1.877,1.562-3.968,2.884-6.274,3.968-2.307,1.084-4.631,1.955-6.968,2.612-2.339.658-4.522,1.167-6.552,1.524.185,1.875.677,3.618,1.478,5.229.798,1.613,2.03,2.827,3.691,3.641,1.661.814,3.783.994,6.368.538,1.845-.325,3.506-.849,4.982-1.57,1.477-.722,2.769-1.504,3.876-2.345,1.107-.841,2.03-1.572,2.769-2.195l3.415,6.688c-.494.518-1.462,1.318-2.908,2.404-1.445,1.085-3.307,2.168-5.583,3.245-2.276,1.077-4.861,1.872-7.751,2.382Z"/>
    </g>
  </g>
</svg>