<?xml version="1.0" encoding="UTF-8"?>
<svg id="Layer_2" data-name="Layer 2" xmlns="http://www.w3.org/2000/svg" viewBox="0 0 203.055 230.078">
  <defs>
    <style>
      .cls-1 {
        fill: #726658;
      }

      .cls-2 {
        fill: #443c35;
      }

      .cls-3 {
        fill: #231f20;
      }

      .cls-4 {
        fill: #a58f79;
      }

      .cls-5 {
        fill: #594a42;
      }
    </style>
  </defs>
  <g id="Layer_7" data-name="Layer 7">
    <g>
      <g>
        <path class="cls-1" d="M7.082,0s38.063,20.36,93.388,23.9l24.786,12.835-11.95,51.784-56.653-6.639-17.704-54.44L7.082,0Z"/>
        <polygon class="cls-2" points="23.015 99.585 75.684 99.585 113.305 88.52 56.653 81.881 23.015 99.585"/>
        <path class="cls-5" d="M0,52.669L7.082,0l37.178,24.343s16.819,26.999,12.393,57.538l-33.637,17.704S32.31,83.209,0,52.669Z"/>
        <path class="cls-4" d="M125.255,36.216c-48.744-5.206-47.973-4.388-80.996-11.873L7.082,0s55.325,18.589,93.388,23.9l24.786,12.316Z"/>
      </g>
      <path class="cls-3" d="M181.313,216.588c-9.157-7.905-17.598-16.277-25.615-24.942,12.106,7.12,24.653,13.781,37.966,19.627.106-.311.212-.622.318-.933-23.783-10.483-45.134-23.574-65.917-37.231-12.611-15.201-24.754-30.713-37.813-45.708,9.973-2.425,20.016-4.768,30.152-6.951,13.497,11.931,26.407,24.035,39.61,35.585.181-.284.362-.569.543-.853-12.963-11.362-25.652-23.258-38.905-35,8.005-1.712,16.068-3.324,24.202-4.797-.04-.356-.08-.712-.12-1.068-8.378,1.509-16.681,3.167-24.92,4.934-3.532-10.363-7.175-20.729-11.107-31.053-7.266,12.608-13.918,25.324-20.462,37.949-4.055-5.667-8.229-11.277-12.581-16.798-.447-2.473-.91-7.946-1.389-10.414-.313.064-.627.127-.94.191.368,1.879.726,6.761,1.075,8.642-6.305-7.912-12.991-15.637-20.237-23.089-.228.245-.456.489-.683.734,7.654,7.865,14.683,16.038,21.299,24.416.974,5.354,1.875,10.717,2.712,16.089-8.172-8.186-14.705-20.128-23.865-27.646,1.214,9.878.11,23.76.694,33.638-2.968-13.168-6.593-26.201-11.071-39.077-.311.098-.623.196-.934.294,4.911,14.028,8.798,28.245,11.913,42.623-8.865-10.571-18.355-26.674-28.971-36.032-.2.248-.4.496-.6.743,11.017,9.718,20.819,26.243,29.97,37.266.001.025.002.05.003.075.052.038.103.077.155.115.376.454.752.909,1.126,1.365-.051-.249-.103-.497-.155-.746,7.866,4.122,43.994,17.902,45.475,18.59,16.63,11.115,33.149,22.402,50.535,32.79,8.73,9.578,17.939,18.826,28.015,27.511,6.96,4.474,14.218,8.712,21.853,12.653.137-.296.274-.591.41-.886-7.593-3.925-14.814-8.147-21.741-12.603ZM125.255,171.258c-7.517-4.968-14.971-9.999-22.449-14.994-3.776-8.799-7.603-17.571-11.619-26.273,11.711,13.562,22.728,27.52,34.068,41.268ZM79.862,128.696c-.043-.288-.087-.576-.131-.865,3.104-.081,6.208-.15,9.313-.208,4.349,9.294,8.462,18.677,12.508,28.094-6.074-2.509-37.419-14.441-44.384-18.113,7.273-3.197,14.572-6.443,21.931-9.68.255.257.509.515.763.772ZM119.878,119.452c-9.956,2.145-19.819,4.446-29.614,6.831,6.179-11.895,12.461-23.865,19.267-35.744,3.645,9.614,7.045,19.264,10.347,28.913ZM77.034,111.411c3.893,4.983,7.645,10.036,11.301,15.137-2.923.058-5.846.126-8.769.206-.785-5.122-1.627-10.237-2.532-15.343ZM78.317,127.137c-7.32,3.217-14.579,6.443-21.81,9.622-.512-10.723.614-25.45-.626-36.173,8.618,7.195,14.686,18.764,22.437,26.551Z"/>
    </g>
  </g>
</svg>