<?xml version="1.0" encoding="UTF-8"?>
<svg id="Layer_2" data-name="Layer 2" xmlns="http://www.w3.org/2000/svg" viewBox="0 0 349.843 234.051">
  <defs>
    <style>
      .cls-1 {
        fill: #231f20;
      }

      .cls-2 {
        fill: #aaa7a7;
      }

      .cls-3 {
        fill: #fff;
      }

      .cls-4 {
        fill: #262424;
      }

      .cls-5 {
        fill: #423d3e;
      }
    </style>
  </defs>
  <g id="Layer_1-2" data-name="Layer 1">
    <g>
      <g>
        <path class="cls-3" d="M113.964,56.163c-.363-.114-.738-.214-1.112-.287-14.521-2.844-32.935,2.804-34.413,16.357-1.055,9.135-9.746,28.152-5.803,39.396,1.172,3.343.185,6.959-2.193,9.585-6.374,7.037.769,20.231,4.597,29.122.739,1.716.836,3.603.479,5.437-1.18,6.06,3.3,12.152,9.462,12.96,1.056.139,2.132.045,3.161-.226,8.492-2.234,20.038-13.145,18.36-22.268-.728-3.959,1.288-7.931,4.835-9.835,8.581-4.607,17.793-10.996,11.362-20.598-9.012-19.125,45.603-42.528-8.737-59.643Z"/>
        <path class="cls-3" d="M45.207,31.934c-17.239-11.865-33.272,6.984-36.518,23.144-.366,1.822-1.287,3.491-2.63,4.775-4.308,4.117-5.552,11.203-4.741,18.163.18,1.545-.082,3.087-.685,4.521-.759,1.806-.804,3.765-.301,5.583,1.346,4.857,6.537,7.573,11.417,6.312,4.822-1.246,10.557-3.923,12.579-8.291,1.203-2.598,3.47-4.55,6.244-5.259,5.108-1.306,9.68-4.365,9.841-9.345.1-3.067,1.805-5.864,4.315-7.629,11.774-8.277,18.027-22.147,1.132-31.566-.222-.124-.445-.263-.655-.408Z"/>
        <path class="cls-3" d="M347.404,99.967c-1.923-2.004-3.099-4.622-2.906-7.393.579-8.295-7.638-20.757-9.293-26.602-7.223-22.934-58.481-3.547-41.432,18.745.185.242.394.484.601.708,10.272,11.134,12.022,8.642,11.737,20.95-.092,3.977,2.31,7.636,6.035,9.03,4.609,1.725,9.909,2.324,9.357,7.086-.269,2.316.375,4.679,1.719,6.585,7.104,10.075,28.082,12.009,24.105-3.772-.366-1.452-.333-2.974.018-4.43,1.612-6.678,4.678-16.095.06-20.907Z"/>
        <path class="cls-3" d="M252.04,174.435c-.576-1.912-1.785-3.346-3.285-4.458-2.784-2.062-4.199-5.551-3.735-8.984,4.45-32.982-33.46-34.997-44.691-8.765-.956,2.233-.943,4.755-.08,7.025,3.204,8.423,5.256,22.862,12.15,28.513,1.823,1.495,3.139,3.597,3.371,5.943.641,6.464,11.733,11.343,12.327,29.446.061,1.874.626,3.714,1.718,5.238,14.454,20.167,28.035-18.986,20.045-33.055-1.658-2.919-1.793-6.466-.163-9.4,2.11-3.799,3.965-8.02,2.345-11.503Z"/>
        <path class="cls-3" d="M275.932,40.214c-.576-1.912-1.785-3.346-3.286-4.458-2.784-2.062-4.199-5.551-3.736-8.984,4.451-32.982-33.462-34.997-44.692-8.765-.956,2.233-.943,4.755-.079,7.025,3.204,8.423,5.255,22.862,12.15,28.513,1.823,1.495,3.139,3.597,3.371,5.943.641,6.464,11.733,11.343,12.327,29.446.061,1.873.626,3.714,1.718,5.237,14.454,20.169,28.035-18.985,20.045-33.054-1.658-2.919-1.793-6.466-.163-9.401,2.111-3.799,3.965-8.02,2.345-11.503Z"/>
        <path class="cls-3" d="M203.171,54.136c-12.98-19.887-35.639-17.551-35.878,8.963-.021,2.345-.981,4.564-2.676,6.184-3.178,3.038-2.693,7.85-.865,12.039,1.08,2.475,1.047,5.27-.044,7.74-6.052,13.705,8.814,44.984,19.175,22.919.548-1.168.75-2.455.774-3.744.137-7.598,7-14.944,8.995-20.533.513-1.438,1.361-2.728,2.494-3.751,4.866-4.395,6.714-14.729,9.063-21.599.941-2.75.55-5.784-1.039-8.218Z"/>
      </g>
      <g>
        <path class="cls-4" d="M130.558,83.143l-16.502,24.518c-1.266,1.88-1.316,4.222-.128,5.956l3.826,5.582c1.773,2.587.7,6.29-2.299,7.931l-15.383,8.42c-3.417,1.87-4.229,6.299-1.601,8.739l.782.726c2.139,1.987,2.061,5.424-.174,7.668l-8.25,8.284c-4.412,4.43-11.41.239-8.959-5.365h0c.59-1.349.627-2.827.102-4.113l-8.202-20.099c-1.088-2.666.303-5.868,3.126-7.196l2.841-1.336c3.261-1.534,4.509-5.477,2.587-8.175l-4.496-6.311c-.831-1.167-1.107-2.654-.762-4.116l7.214-30.647,46.278,9.535Z"/>
        <path class="cls-5" d="M131.757,80.543c-2.214,7.821-14.522,12.146-27.492,9.662-12.97-2.485-21.689-10.839-19.475-18.66,2.214-7.821,14.522-12.146,27.492-9.662,12.97,2.485,21.689,10.839,19.475,18.66Z"/>
        <path class="cls-1" d="M107.194,85.618c-.518-.075-1.035-.162-1.555-.262-5.311-1.017-10.082-3.253-13.09-6.135-2.387-2.287-3.432-4.743-2.867-6.74,1.14-4.027,9.499-7.486,19.672-6.011.518.075,1.035.162,1.555.262,5.311,1.017,10.082,3.253,13.09,6.135,2.387,2.287,3.432,4.743,2.867,6.74-1.14,4.027-9.499,7.486-19.672,6.011Z"/>
        <g>
          <path class="cls-2" d="M118.134,80.114l5.984,2.778c.798-.539,1.455-1.123,1.933-1.741l-7.917-1.037Z"/>
          <path class="cls-2" d="M109.728,73.126l8.885-3.675-4.671,5.823,12.235.35c-.508-.92-1.233-1.852-2.179-2.757-3.008-2.882-7.778-5.118-13.09-6.135-.52-.1-1.037-.187-1.555-.262-.687-.1-1.364-.173-2.032-.229l2.407,6.885Z"/>
          <path class="cls-2" d="M126.599,80.278c.109-.222.203-.445.267-.672.308-1.087.122-2.312-.482-3.57l-9.442,1.732,9.657,2.509Z"/>
          <path class="cls-2" d="M110.491,82.288l-.843,3.584c1.625.115,3.193.114,4.671,0l-3.828-3.583Z"/>
          <path class="cls-2" d="M114.554,82.622l1.96,2.985c.862-.136,1.693-.301,2.473-.506l-4.432-2.479Z"/>
          <path class="cls-2" d="M105.135,71.748l1.307-5.56c-2.464-.14-4.775.004-6.855.368l5.547,5.192Z"/>
          <path class="cls-2" d="M117.281,81.846l3.57,2.665c.676-.247,1.315-.514,1.894-.808l-5.464-1.857Z"/>
          <path class="cls-2" d="M98.086,66.865c-1.189.284-2.292.634-3.272,1.049l6.258,3.5-2.987-4.549Z"/>
          <path class="cls-2" d="M101.685,78.762l-9.848-.281c.224.248.457.496.713.741,1.514,1.451,3.477,2.737,5.729,3.787l3.407-4.247Z"/>
          <path class="cls-2" d="M89.554,73.895c.08,1.192.626,2.476,1.595,3.755l7.536-1.383-9.131-2.373Z"/>
          <path class="cls-2" d="M105.898,80.91l-6.37,2.634c1.896.776,3.954,1.398,6.11,1.811.52.1,1.037.187,1.555.262.123.018.242.026.365.043l-1.661-4.75Z"/>
          <path class="cls-2" d="M98.345,72.19l-4.863-3.631c-.748.405-1.398.847-1.947,1.316l6.811,2.314Z"/>
          <path class="cls-2" d="M90.66,70.751c-.466.556-.81,1.135-.978,1.731-.037.133-.049.272-.073.409l7.884,1.032-6.833-3.172Z"/>
        </g>
      </g>
      <g>
        <path class="cls-4" d="M48.521,52.861l-14.099,10.466c-1.081.803-1.573,2.104-1.251,3.311l1.037,3.884c.481,1.8-.853,3.662-2.858,3.987l-10.284,1.67c-2.285.371-3.616,2.691-2.628,4.578l.294.562c.805,1.536.08,3.446-1.616,4.26l-6.261,3.006c-3.348,1.608-6.439-2.125-3.956-4.779h0c.598-.639.911-1.459.872-2.283l-.614-12.882c-.081-1.709,1.332-3.227,3.176-3.412l1.856-.186c2.131-.214,3.61-2.175,3.068-4.066l-1.268-4.425c-.235-.818-.094-1.706.388-2.457l10.11-15.738,24.033,14.505Z"/>
        <path class="cls-5" d="M49.708,51.643c-2.789,3.942-10.54,3.928-17.312-.032-6.773-3.96-10.002-10.366-7.213-14.308s10.54-3.928,17.312.032,10.002,10.366,7.213,14.308Z"/>
        <path class="cls-1" d="M34.944,49.621c-.275-.145-.548-.296-.819-.455-2.774-1.622-5.003-3.819-6.117-6.028-.884-1.754-.983-3.336-.271-4.343,1.436-2.03,6.803-2.312,12.209.528.275.145.548.296.819.455,2.774,1.622,5.003,3.819,6.117,6.028.884,1.754.983,3.336.271,4.343-1.436,2.03-6.803,2.312-12.209-.528Z"/>
        <g>
          <path class="cls-2" d="M42.161,48.705l2.802,2.741c.554-.144,1.037-.341,1.427-.592l-4.229-2.148Z"/>
          <path class="cls-2" d="M38.837,43.126l5.704-.299-3.77,2.337,6.784,2.619c-.102-.616-.324-1.281-.674-1.976-1.114-2.21-3.343-4.407-6.117-6.028-.272-.159-.544-.31-.819-.455-.365-.192-.73-.367-1.093-.53l-.015,4.333Z"/>
          <path class="cls-2" d="M46.871,50.473c.105-.103.202-.209.283-.323.388-.548.526-1.271.437-2.095l-5.632-.899,4.912,3.318Z"/>
          <path class="cls-2" d="M37.45,48.409l-1.182,1.841c.888.386,1.766.696,2.616.924l-1.435-2.765Z"/>
          <path class="cls-2" d="M39.66,49.401l.507,2.06c.51.095,1.008.166,1.485.206l-1.992-2.266Z"/>
          <path class="cls-2" d="M36.537,41.445l1.833-2.855c-1.352-.566-2.676-.943-3.912-1.151l2.079,4.007Z"/>
          <path class="cls-2" d="M41.341,49.506l1.472,2.2c.427-.004.838-.028,1.221-.078l-2.693-2.122Z"/>
          <path class="cls-2" d="M33.556,37.314c-.722-.077-1.409-.099-2.04-.06l2.812,3.2-.772-3.14Z"/>
          <path class="cls-2" d="M33.216,44.69l-5.461-2.108c.077.183.158.368.253.556.561,1.113,1.405,2.222,2.459,3.256l2.749-1.704Z"/>
          <path class="cls-2" d="M27.385,39.562c-.191.683-.14,1.511.15,2.419l4.495.718-4.645-3.137Z"/>
          <path class="cls-2" d="M35.151,46.728l-4.089.214c.908.81,1.938,1.566,3.064,2.225.272.159.544.31.819.455.065.034.131.063.196.096l.011-2.989Z"/>
          <path class="cls-2" d="M32.647,40.348l-2.005-2.997c-.499.079-.951.197-1.351.352l3.357,2.645Z"/>
          <path class="cls-2" d="M28.627,38.02c-.371.219-.678.476-.891.776-.047.067-.082.143-.122.215l4.211,2.139-3.199-3.13Z"/>
        </g>
      </g>
      <g>
        <path class="cls-4" d="M298.118,80.644l14.628,15.338c1.122,1.176,1.44,2.826.81,4.195l-2.03,4.408c-.941,2.043.265,4.531,2.583,5.329l11.892,4.093c2.642.909,3.75,3.942,2.188,5.984l-.465.608c-1.272,1.663-.801,4.083,1.049,5.399l6.832,4.859c3.654,2.599,8.095-1.209,5.685-4.875h0c-.58-.882-.785-1.923-.569-2.895l3.369-15.199c.447-2.016-.923-4.111-3.079-4.709l-2.17-.601c-2.491-.69-3.849-3.327-2.817-5.466l2.415-5.005c.447-.925.462-2.01.042-3.002l-8.803-20.793-31.562,12.332Z"/>
        <path class="cls-5" d="M296.956,78.951c2.51,5.261,11.733,6.831,20.601,3.508,8.868-3.324,14.022-10.283,11.512-15.544s-11.733-6.831-20.601-3.508c-8.868,3.324-14.022,10.283-11.512,15.544Z"/>
        <path class="cls-1" d="M314.933,79.571c.357-.116.712-.24,1.068-.373,3.632-1.361,6.734-3.518,8.512-5.918,1.411-1.905,1.853-3.768,1.212-5.111-1.292-2.709-7.619-4.144-14.632-1.873-.357.116-.712.24-1.068.373-3.632,1.361-6.734,3.518-8.512,5.918-1.411,1.905-1.853,3.768-1.212,5.111,1.292,2.709,7.619,4.144,14.632,1.873Z"/>
        <g>
          <path class="cls-2" d="M306.535,77.002l-3.894,2.687c-.629-.284-1.164-.618-1.577-.997l5.471-1.689Z"/>
          <path class="cls-2" d="M311.632,71.046l-6.725-1.524,4.006,3.552-8.607,1.725c.248-.712.648-1.458,1.207-2.212,1.778-2.401,4.88-4.557,8.512-5.918.356-.134.711-.257,1.068-.373.474-.153.943-.287,1.409-.407l-.869,5.158Z"/>
          <path class="cls-2" d="M300.571,78.141c-.104-.144-.197-.29-.27-.442-.349-.731-.366-1.62-.091-2.582l6.884.084-6.523,2.941Z"/>
          <path class="cls-2" d="M312.2,77.615l1.029,2.432c-1.135.278-2.243.467-3.302.564l2.273-2.995Z"/>
          <path class="cls-2" d="M309.368,78.342l-1.025,2.347c-.626.008-1.233-.008-1.809-.059l2.834-2.288Z"/>
          <path class="cls-2" d="M314.713,69.517l-1.596-3.772c1.725-.396,3.376-.574,4.89-.568l-3.294,4.341Z"/>
          <path class="cls-2" d="M307.347,78.123l-2.202,2.315c-.508-.093-.992-.204-1.437-.343l3.638-1.973Z"/>
          <path class="cls-2" d="M319.106,65.214c.875.057,1.697.171,2.439.346l-4.001,3.231,1.562-3.577Z"/>
          <path class="cls-2" d="M317.999,74.058l6.928-1.389c-.129.202-.263.406-.414.61-.895,1.209-2.127,2.355-3.592,3.37l-2.921-2.59Z"/>
          <path class="cls-2" d="M325.986,69.152c.087.852-.143,1.826-.674,2.847l-5.494-.067,6.168-2.781Z"/>
          <path class="cls-2" d="M315.28,76.086l4.821,1.093c-1.247.778-2.626,1.466-4.1,2.019-.356.134-.711.257-1.068.373-.085.027-.168.048-.253.074l.6-3.558Z"/>
          <path class="cls-2" d="M319.566,69.009l2.999-3.154c.577.196,1.09.43,1.536.695l-4.535,2.459Z"/>
          <path class="cls-2" d="M324.824,67.063c.397.337.71.705.901,1.105.043.089.068.186.101.28l-5.448,1.682,4.447-3.068Z"/>
        </g>
      </g>
      <g>
        <path class="cls-4" d="M238.11,147.529l-.441,21.191c-.034,1.625.844,3.057,2.233,3.642l4.473,1.883c2.073.873,2.862,3.522,1.69,5.675l-6.012,11.046c-1.335,2.454-.107,5.44,2.425,5.892l.754.135c2.061.368,3.347,2.472,2.87,4.692l-3.47,22.862c-.942,4.384-6.789,4.571-7.485.24h0c-.168-1.043-.719-1.948-1.534-2.52l-3.54-21.006c-1.691-1.186-9.59-6.256-8.403-8.152l1.195-1.908c1.372-2.191.595-5.053-1.611-5.934l-5.16-2.062c-.954-.381-1.697-1.171-2.057-2.187l-7.539-21.284,31.612-12.203Z"/>
        <path class="cls-5" d="M237.825,145.496c1.699,5.576-4.047,12.96-12.833,16.493-8.787,3.533-17.287,1.877-18.986-3.699s4.047-12.96,12.833-16.493c8.787-3.533,17.287-1.877,18.986,3.699Z"/>
        <path class="cls-1" d="M224.979,158.086c-.342.156-.687.304-1.04.445-3.598,1.447-7.343,1.949-10.275,1.378-2.327-.453-3.91-1.529-4.344-2.953-.875-2.871,2.825-8.2,9.533-11.258.342-.156.687-.304,1.04-.445,3.598-1.447,7.343-1.949,10.275-1.378,2.327.453,3.91,1.529,4.344,2.953.875,2.871-2.825,8.2-9.533,11.258Z"/>
        <g>
          <path class="cls-2" d="M229.441,150.523l4.687-.646c.272-.635.442-1.242.49-1.8l-5.177,2.446Z"/>
          <path class="cls-2" d="M221.66,149.569l3.933-5.663-.558,5.325,7.515-4.536c-.663-.358-1.462-.638-2.384-.818-2.932-.571-6.677-.069-10.275,1.378-.353.141-.698.29-1.04.445-.453.206-.889.425-1.314.651l4.123,3.219Z"/>
          <path class="cls-2" d="M234.611,147.337c-.021-.176-.05-.347-.099-.509-.236-.775-.823-1.442-1.676-1.967l-5.023,4.708,6.798-2.233Z"/>
          <path class="cls-2" d="M225.675,154.799l.882,2.489c1.025-.561,1.97-1.17,2.817-1.813l-3.699-.676Z"/>
          <path class="cls-2" d="M228.255,153.424l2.34,1.04c.467-.416.904-.839,1.295-1.265l-3.635.224Z"/>
          <path class="cls-2" d="M218.356,150.52l-1.369-3.861c-1.54.872-2.879,1.855-3.992,2.881l5.36.979Z"/>
          <path class="cls-2" d="M229.599,151.898l3.187.222c.312-.411.594-.82.829-1.222l-4.016,1Z"/>
          <path class="cls-2" d="M212.21,150.309c-.607.632-1.137,1.271-1.566,1.902l5.133-.317-3.566-1.585Z"/>
          <path class="cls-2" d="M218.995,156.089l-6.049,3.651c.232.063.468.122.717.17,1.476.288,3.159.302,4.925.062l.407-3.883Z"/>
          <path class="cls-2" d="M209.791,157.86c.511.687,1.338,1.251,2.419,1.646l4.009-3.758-6.428,2.111Z"/>
          <path class="cls-2" d="M222.371,155.75l-2.82,4.06c1.445-.267,2.927-.69,4.388-1.278.353-.141.698-.29,1.04-.445.081-.037.156-.078.237-.116l-2.844-2.221Z"/>
          <path class="cls-2" d="M214.432,153.421l-4.342-.303c-.294.534-.515,1.053-.664,1.549l5.006-1.247Z"/>
          <path class="cls-2" d="M209.238,155.534c-.066.516-.048.999.081,1.423.029.095.076.183.115.275l5.156-2.436-5.352.738Z"/>
        </g>
      </g>
      <g>
        <path class="cls-4" d="M262.001,13.308l-.441,21.191c-.034,1.625.844,3.057,2.233,3.642l4.473,1.883c2.073.873,2.862,3.522,1.69,5.675l-6.012,11.046c-1.335,2.454-.107,5.44,2.425,5.892l.754.135c2.061.368,3.347,2.472,2.87,4.692l-3.47,22.862c-.942,4.384-6.789,4.571-7.485.24h0c-.168-1.043-.719-1.948-1.534-2.52l-3.54-21.006c-1.691-1.186-9.59-6.256-8.403-8.152l1.195-1.908c1.372-2.191.595-5.053-1.611-5.934l-5.16-2.062c-.954-.381-1.697-1.171-2.057-2.187l-7.539-21.284,31.612-12.203Z"/>
        <path class="cls-5" d="M261.716,11.275c1.699,5.576-4.047,12.96-12.833,16.493-8.787,3.533-17.287,1.877-18.986-3.699s4.047-12.96,12.833-16.493c8.787-3.533,17.287-1.877,18.986,3.699Z"/>
        <path class="cls-1" d="M248.87,23.866c-.342.156-.687.304-1.04.445-3.598,1.447-7.343,1.949-10.275,1.378-2.327-.453-3.91-1.529-4.344-2.953-.875-2.871,2.825-8.2,9.533-11.258.342-.156.687-.304,1.04-.445,3.598-1.447,7.343-1.949,10.275-1.378,2.327.453,3.91,1.529,4.344,2.953.875,2.871-2.825,8.2-9.533,11.258Z"/>
        <g>
          <path class="cls-2" d="M253.332,16.302l4.687-.646c.272-.635.442-1.242.49-1.8l-5.177,2.446Z"/>
          <path class="cls-2" d="M245.552,15.348l3.933-5.663-.558,5.325,7.515-4.536c-.663-.358-1.462-.638-2.384-.818-2.932-.571-6.677-.069-10.275,1.378-.353.141-.698.29-1.04.445-.453.206-.889.425-1.314.651l4.123,3.219Z"/>
          <path class="cls-2" d="M258.502,13.117c-.021-.176-.05-.347-.099-.509-.236-.775-.823-1.442-1.676-1.967l-5.023,4.708,6.798-2.233Z"/>
          <path class="cls-2" d="M249.566,20.578l.882,2.489c1.025-.561,1.97-1.17,2.817-1.813l-3.699-.676Z"/>
          <path class="cls-2" d="M252.146,19.203l2.34,1.04c.467-.416.904-.839,1.295-1.265l-3.635.224Z"/>
          <path class="cls-2" d="M242.247,16.299l-1.369-3.861c-1.54.872-2.879,1.855-3.992,2.881l5.36.979Z"/>
          <path class="cls-2" d="M253.49,17.677l3.187.222c.312-.411.594-.82.829-1.222l-4.016,1Z"/>
          <path class="cls-2" d="M236.101,16.089c-.607.632-1.137,1.271-1.566,1.902l5.133-.317-3.566-1.585Z"/>
          <path class="cls-2" d="M242.887,21.868l-6.049,3.651c.232.063.468.122.717.17,1.476.288,3.159.302,4.925.062l.407-3.883Z"/>
          <path class="cls-2" d="M233.682,23.639c.511.687,1.338,1.251,2.419,1.646l4.009-3.758-6.428,2.111Z"/>
          <path class="cls-2" d="M246.262,21.529l-2.82,4.06c1.445-.267,2.927-.69,4.388-1.278.353-.141.698-.29,1.04-.445.081-.037.156-.078.237-.116l-2.844-2.221Z"/>
          <path class="cls-2" d="M238.323,19.2l-4.342-.303c-.294.534-.515,1.053-.664,1.549l5.006-1.247Z"/>
          <path class="cls-2" d="M233.129,21.313c-.066.516-.048.999.081,1.423.029.095.076.183.115.275l5.156-2.436-5.352.738Z"/>
        </g>
      </g>
      <g>
        <path class="cls-4" d="M174.463,53.004l.33,15.874c.025,1.217-.633,2.29-1.673,2.728l-3.351,1.41c-1.553.654-2.144,2.638-1.266,4.251l4.503,8.275c1,1.838.08,4.075-1.816,4.414l-.564.101c-1.544.276-2.507,1.852-2.15,3.515l2.599,17.125c.706,3.284,5.086,3.424,5.607.18h0c.126-.781.538-1.459,1.149-1.888l2.652-15.736c1.266-.888,7.184-4.686,6.294-6.107l-.895-1.43c-1.028-1.641-.446-3.785,1.207-4.445l3.865-1.545c.715-.286,1.271-.877,1.541-1.638l5.647-15.943-23.68-9.141Z"/>
        <path class="cls-5" d="M174.676,51.481c-1.273,4.177,3.031,9.708,9.613,12.355,6.582,2.647,12.949,1.406,14.222-2.771,1.273-4.177-3.031-9.708-9.613-12.355-6.582-2.647-12.949-1.406-14.222,2.771Z"/>
        <path class="cls-1" d="M184.299,60.913c.256.117.515.228.779.334,2.695,1.084,5.501,1.46,7.697,1.032,1.743-.34,2.929-1.146,3.254-2.212.655-2.15-2.116-6.143-7.141-8.433-.256-.117-.515-.228-.779-.334-2.695-1.084-5.501-1.46-7.697-1.032-1.743.34-2.929,1.146-3.254,2.212-.655,2.15,2.116,6.143,7.141,8.433Z"/>
        <g>
          <path class="cls-2" d="M180.956,55.247l-3.511-.484c-.204-.475-.331-.93-.367-1.348l3.878,1.832Z"/>
          <path class="cls-2" d="M186.785,54.532l-2.946-4.242.418,3.989-5.63-3.398c.497-.268,1.095-.478,1.786-.613,2.196-.428,5.002-.052,7.697,1.032.264.106.523.217.779.334.339.155.666.318.985.487l-3.088,2.411Z"/>
          <path class="cls-2" d="M177.084,52.861c.015-.132.038-.26.075-.381.177-.581.617-1.08,1.255-1.473l3.763,3.527-5.092-1.673Z"/>
          <path class="cls-2" d="M183.777,58.45l-.661,1.864c-.768-.42-1.476-.876-2.11-1.358l2.771-.506Z"/>
          <path class="cls-2" d="M181.845,57.42l-1.753.779c-.35-.312-.677-.628-.97-.947l2.723.168Z"/>
          <path class="cls-2" d="M189.26,55.245l1.025-2.892c1.154.653,2.156,1.39,2.99,2.158l-4.015.734Z"/>
          <path class="cls-2" d="M180.838,56.277l-2.388.167c-.234-.308-.445-.614-.621-.916l3.008.749Z"/>
          <path class="cls-2" d="M193.864,55.087c.455.474.851.952,1.173,1.425l-3.845-.237,2.672-1.187Z"/>
          <path class="cls-2" d="M188.781,59.416l4.531,2.735c-.174.047-.351.091-.537.127-1.106.215-2.366.226-3.689.046l-.305-2.909Z"/>
          <path class="cls-2" d="M195.676,60.743c-.383.515-1.002.937-1.812,1.233l-3.003-2.815,4.815,1.582Z"/>
          <path class="cls-2" d="M186.253,59.162l2.112,3.041c-1.082-.2-2.193-.517-3.287-.957-.264-.106-.523-.217-.779-.334-.061-.028-.117-.059-.177-.087l2.131-1.664Z"/>
          <path class="cls-2" d="M192.2,57.418l3.252-.227c.22.4.386.789.497,1.161l-3.75-.934Z"/>
          <path class="cls-2" d="M196.09,59.001c.049.387.036.748-.061,1.066-.022.071-.057.137-.086.206l-3.862-1.825,4.009.553Z"/>
        </g>
      </g>
    </g>
  </g>
</svg>